<?xml version="1.0" standalone="no"?><!-- Generator: Adobe Fireworks CS5.1, Export SVG Extension by Aaron Beall (http://fireworks.abeall.com) . Version: 0.6.1  --><!DOCTYPE svg PUBLIC "-//W3C//DTD SVG 1.1//EN" "http://www.w3.org/Graphics/SVG/1.1/DTD/svg11.dtd"><svg id="Untitled-Page%201" viewBox="0 0 14 14" style="background-color:#ffffff00" version="1.1"	xmlns="http://www.w3.org/2000/svg" xmlns:xlink="http://www.w3.org/1999/xlink" xml:space="preserve"	x="0px" y="0px" width="14px" height="14px">	<g id="Layer%201">		<path id="Shape%20328" d="M 11.5863 12.7758 C 14.0636 11.9475 13.9681 10.3549 14 9.9721 C 14 6.9142 11.2791 6.4154 10.1888 6.4366 C 7.1085 6.5322 6.3779 8.5179 6.4098 9.8133 C 6.5687 14.4639 11.9991 13.9861 11.9991 13.9861 C 10.4114 13.4443 11.3481 12.8234 11.5863 12.7758 ZM 6.8859 10.0041 C 6.8859 10.0041 6.8547 8.1091 8.3629 7.3284 C 9.8715 6.5482 7.2514 8.0137 6.8859 10.0041 ZM 10.1858 5.7099 C 10.6609 5.7007 11.3957 5.7752 12.137 6.0504 C 12.1584 5.847 12.1744 5.6381 12.1819 5.4204 C 12.2324 3.3408 11.0605 0.1544 6.1164 0.001 C 4.3664 -0.0332 0 0.7674 0 5.6759 C 0.0506 6.2895 -0.102 8.8455 3.8737 10.1747 C 4.2559 10.2516 5.7596 11.2485 3.2109 12.1173 C 3.2109 12.1173 4.5487 12.2331 6.1897 11.9281 C 5.8971 11.3318 5.7106 10.61 5.6805 9.7356 C 5.6429 8.1912 6.5137 5.8242 10.1858 5.7099 ZM 0.7588 5.7273 C 0.7588 5.7273 0.7078 2.6851 3.1291 1.4322 C 5.5501 0.18 1.3451 2.5315 0.7588 5.7273 Z" fill="#000000"/>	</g></svg>