<?xml version="1.0" standalone="no"?><!-- Generator: Adobe Fireworks CS5.1, Export SVG Extension by Aaron Beall (http://fireworks.abeall.com) . Version: 0.6.1  --><!DOCTYPE svg PUBLIC "-//W3C//DTD SVG 1.1//EN" "http://www.w3.org/Graphics/SVG/1.1/DTD/svg11.dtd"><svg id="Untitled-Page%201" viewBox="0 0 16 16" style="background-color:#ffffff00" version="1.1"	xmlns="http://www.w3.org/2000/svg" xmlns:xlink="http://www.w3.org/1999/xlink" xml:space="preserve"	x="0px" y="0px" width="16px" height="16px">	<g id="Layer%201">		<path d="M 6.3333 13 L 6.3333 9.6667 L 3 9.6667 L 3 6.3333 L 6.3333 6.3333 L 6.3333 3 L 9.6667 3 L 9.6667 6.3333 L 13 6.3333 L 13 9.6667 L 9.6667 9.6667 L 9.6667 13 L 6.3333 13 ZM 16 2.4 C 16 1.2 14.7953 0 13.5908 0 L 2.4093 0 C 1.2047 0 0 1.2 0 2.4 L 0 13.6 C 0 14.8 1.2047 16 2.4093 16 L 13.5908 16 C 14.7953 16 16 14.8 16 13.6 L 16 2.4 Z" fill="#51c101"/>	</g></svg>