<?xml version="1.0" standalone="no"?><!-- Generator: Adobe Fireworks CS5.1, Export SVG Extension by Aaron Beall (http://fireworks.abeall.com) . Version: 0.6.1  --><!DOCTYPE svg PUBLIC "-//W3C//DTD SVG 1.1//EN" "http://www.w3.org/Graphics/SVG/1.1/DTD/svg11.dtd"><svg id="Untitled-Page%201" viewBox="0 0 14 14" style="background-color:#ffffff00" version="1.1"	xmlns="http://www.w3.org/2000/svg" xmlns:xlink="http://www.w3.org/1999/xlink" xml:space="preserve"	x="0px" y="0px" width="14px" height="14px">	<g id="Layer%201">		<path d="M 6.9996 0 C 3.1336 0.0002 0 3.1338 0 7.0001 C 0 10.8658 3.1336 13.9998 6.9996 14 C 10.866 13.9998 13.9996 10.8658 14 7.0001 C 13.9996 3.1338 10.866 0 6.9996 0 ZM 11.2483 11.2479 C 10.1591 12.3362 8.6607 13.0077 6.9996 13.0077 C 5.3393 13.0077 3.8405 12.3362 2.7517 11.2479 C 1.6634 10.1592 0.9921 8.6608 0.9916 7.0001 C 0.9921 5.3397 1.6634 3.8406 2.7517 2.7514 C 3.8405 1.6634 5.3393 0.9923 6.9996 0.9923 C 8.6607 0.9923 10.1591 1.6634 11.2483 2.7514 C 12.3361 3.8406 13.0074 5.3397 13.0074 7.0001 C 13.0074 8.6608 12.3361 10.1592 11.2483 11.2479 ZM 6 8.0482 L 6 10 L 8 10 L 8 8 L 10 8 L 10 6 L 8 6 L 8 4 L 6 4 L 6 6 L 4 6 L 4 8 L 5.9619 8 L 6 8.0482 Z" fill="#ffffff"/>	</g></svg>