<?xml version="1.0" standalone="no"?><!-- Generator: Adobe Fireworks CS5.1, Export SVG Extension by Aaron Beall (http://fireworks.abeall.com) . Version: 0.6.1  --><!DOCTYPE svg PUBLIC "-//W3C//DTD SVG 1.1//EN" "http://www.w3.org/Graphics/SVG/1.1/DTD/svg11.dtd"><svg id="ICON-Page%201" viewBox="0 0 16 15" style="background-color:#ffffff00" version="1.1"	xmlns="http://www.w3.org/2000/svg" xmlns:xlink="http://www.w3.org/1999/xlink" xml:space="preserve"	x="0px" y="0px" width="16px" height="15px">	<defs>		<linearGradient id="gradient1" x1="60.6572%" y1="72.6653%" x2="27.5625%" y2="31.8167%">			<stop stop-color="#999999" stop-opacity="1" offset="1%"/>			<stop stop-color="#000000" stop-opacity="1" offset="99%"/>		</linearGradient>	</defs>	<g id="Layer%201">		<g>			<g>				<path d="M 15.2656 11.1857 C 15.1191 11.1857 14.9948 11.2385 14.892 11.3443 C 14.7896 11.4499 14.7383 11.5776 14.7383 11.7276 C 14.7383 11.8781 14.7896 12.0059 14.892 12.1114 C 14.9948 12.2167 15.1191 12.2695 15.2656 12.2695 C 15.4116 12.2695 15.5359 12.2167 15.6389 12.1109 C 15.7416 12.0053 15.793 11.8776 15.793 11.7276 C 15.793 11.5776 15.7416 11.4499 15.6389 11.3443 C 15.5359 11.2385 15.4116 11.1857 15.2656 11.1857 ZM 15.2653 11.2927 C 15.3826 11.2927 15.4827 11.3349 15.5651 11.4191 C 15.6478 11.5035 15.6889 11.6062 15.6889 11.7268 C 15.6889 11.8476 15.6475 11.9503 15.5648 12.0353 C 15.4821 12.1203 15.3821 12.1625 15.2653 12.1625 C 15.148 12.1625 15.048 12.1203 14.9656 12.0353 C 14.8834 11.9503 14.8423 11.8476 14.8423 11.7268 C 14.8423 11.6062 14.8834 11.5035 14.9656 11.4191 C 15.048 11.3349 15.148 11.2927 15.2653 11.2927 ZM 15.5135 12.017 L 15.4486 11.9009 C 15.4207 11.8509 15.3994 11.8181 15.3851 11.8023 C 15.3707 11.7865 15.3518 11.7743 15.3288 11.7659 L 15.3288 11.7629 C 15.4294 11.7479 15.4797 11.6943 15.4797 11.6024 C 15.4797 11.5515 15.4637 11.5118 15.4321 11.4835 C 15.4005 11.4552 15.3578 11.441 15.3034 11.441 L 15.0275 11.441 L 15.0275 12.017 L 15.1396 12.017 L 15.1396 11.7807 L 15.161 11.7807 C 15.1913 11.7807 15.2132 11.7837 15.2264 11.7901 C 15.2399 11.7965 15.2564 11.8123 15.2764 11.837 C 15.2964 11.862 15.314 11.8904 15.3291 11.922 L 15.3737 12.017 L 15.5135 12.017 ZM 15.1396 11.6893 L 15.1396 11.531 L 15.2442 11.531 C 15.3213 11.531 15.3599 11.5571 15.3599 11.6096 C 15.3599 11.6629 15.3256 11.6893 15.2567 11.6893 L 15.1396 11.6893 ZM 15.8013 5.4832 C 15.2778 5.2256 14.7807 5.0968 14.3096 5.0968 C 13.7987 5.0968 13.3908 5.2285 13.0859 5.4922 C 12.781 5.7561 12.6286 6.1025 12.6286 6.5319 C 12.6286 6.8636 12.6986 7.1356 12.8383 7.3479 C 12.9781 7.5602 13.1443 7.7235 13.3367 7.8381 C 13.5289 7.9529 13.7898 8.0765 14.1187 8.2101 C 14.4477 8.3437 14.6555 8.457 14.7418 8.5499 C 14.8277 8.6428 14.871 8.7417 14.871 8.8467 C 14.871 9.1541 14.6555 9.308 14.2244 9.308 C 13.9701 9.308 13.7292 9.2566 13.5022 9.1541 C 13.2751 9.0514 13.0146 8.8883 12.7199 8.6639 L 12.7199 9.7407 C 13.233 10.0626 13.763 10.224 14.3096 10.224 C 14.8164 10.224 15.2248 10.0865 15.5348 9.8124 C 15.8451 9.5379 16 9.1694 16 8.707 C 16 8.3824 15.9289 8.1142 15.7873 7.9018 C 15.6451 7.6896 15.4764 7.5249 15.281 7.4082 C 15.0856 7.2912 14.8247 7.1649 14.4988 7.0288 C 14.173 6.893 13.9679 6.782 13.8838 6.6962 C 13.7998 6.6102 13.7576 6.5197 13.7576 6.4241 C 13.7576 6.3003 13.816 6.2006 13.9328 6.1254 C 14.0493 6.0503 14.2066 6.0128 14.4042 6.0128 C 14.7509 6.0128 15.2169 6.1618 15.8013 6.46 L 15.8013 5.4832 ZM 10.8792 5.1552 L 10.8792 8.1637 C 10.8792 8.5221 10.7778 8.7984 10.5748 8.9925 C 10.3718 9.1869 10.1013 9.2841 9.7626 9.2841 C 9.4366 9.2841 9.1733 9.1891 8.9728 8.9989 C 8.7717 8.8092 8.6714 8.5569 8.6714 8.2415 L 8.6714 5.1552 L 7.5708 5.1552 L 7.5708 8.2155 C 7.5708 8.8631 7.7637 9.3596 8.1495 9.7054 C 8.5354 10.0509 9.0771 10.224 9.7753 10.224 C 10.4816 10.224 11.0252 10.0531 11.4057 9.7118 C 11.7863 9.3705 11.9766 8.8697 11.9766 8.209 L 11.9766 5.1552 L 10.8792 5.1552 ZM 1.8893 13.7701 C 1.1819 13.0368 2.1775 10.7846 4.1863 8.2732 C 4.5612 8.6928 4.9562 9.1148 5.3692 9.5352 C 9.2404 13.4762 13.3019 15.8642 14.2717 14.7077 C 15.0469 13.7834 14.6466 13.2132 13.0989 10.75 C 13.7622 12.2672 13.7881 12.49 13.3559 13.0188 C 12.5318 14.0273 9.1247 12.0678 5.92 8.8056 C 5.515 8.3933 5.1314 7.9788 4.772 7.5673 C 5.1708 7.1035 5.601 6.635 6.0584 6.1693 C 9.2628 2.9071 12.5926 1.0204 13.4943 1.9561 C 13.9906 2.4707 13.6473 3.7335 12.7059 5.3079 C 14.3601 2.9371 15.0891 0.9713 14.4101 0.2671 C 13.3646 -0.8174 9.3785 1.4987 5.5073 5.4397 C 5.0407 5.9147 4.5972 6.3915 4.1796 6.8648 C 2.0831 4.2883 1.0284 1.9541 1.751 1.205 C 2.1969 0.7428 3.2354 0.97 4.5583 1.7107 C 2.5164 0.3426 0.8714 -0.2045 0.253 0.4362 C -0.6184 1.3399 0.8276 4.3205 3.5747 7.5697 C 0.9176 10.7547 -0.4653 13.6504 0.3914 14.5388 C 1.0095 15.1796 2.6548 14.6324 4.6967 13.2643 C 3.3738 14.005 2.3351 14.2322 1.8893 13.7701 Z" fill="url(#gradient1)"/>			</g>		</g>	</g></svg>