<?xml version="1.0" standalone="no"?><!-- Generator: Adobe Fireworks CS5.1, Export SVG Extension by Aaron Beall (http://fireworks.abeall.com) . Version: 0.6.1  --><!DOCTYPE svg PUBLIC "-//W3C//DTD SVG 1.1//EN" "http://www.w3.org/Graphics/SVG/1.1/DTD/svg11.dtd"><svg id="Untitled-Page%201" viewBox="0 0 16 16" style="background-color:#ffffff00" version="1.1"	xmlns="http://www.w3.org/2000/svg" xmlns:xlink="http://www.w3.org/1999/xlink" xml:space="preserve"	x="0px" y="0px" width="16px" height="16px">	<g id="Layer%201">		<path d="M 0 6.7237 L 0 12.3074 C 0 13.325 0.2695 14.1537 0.8093 14.7938 C 1.1187 15.1635 1.5136 15.4562 1.9922 15.6741 C 2.4708 15.8911 2.9631 16 3.4669 16 C 4.4688 16 5.3142 15.6674 6.0029 15.001 C 6.6907 14.3346 7.035 13.5146 7.035 12.5418 C 7.035 11.5914 6.6974 10.7783 6.0244 10.1031 C 5.3512 9.428 4.5418 9.0895 3.5973 9.0895 L 2.926 9.1187 L 2.926 11.8736 C 3.1635 11.7198 3.3736 11.642 3.5564 11.642 C 3.8152 11.642 4.035 11.7325 4.2141 11.9135 C 4.393 12.0944 4.4825 12.3171 4.4825 12.5826 C 4.4825 12.8395 4.3842 13.0583 4.1897 13.2393 C 3.9941 13.4203 3.7559 13.5098 3.4756 13.5098 C 2.8181 13.5098 2.4902 13.0778 2.4902 12.2131 L 2.4902 6.7237 L 0 6.7237 ZM 4.4825 3.007 C 9.1856 3.0238 12.993 6.8416 12.993 11.5486 L 12.9861 11.8911 L 15.9951 11.8911 L 16 11.5486 C 16 5.1808 10.8464 0.0168 4.4825 0 L 4.4825 3.007 ZM 4.4825 7.6047 C 6.7932 7.6705 8.6461 9.5644 8.6461 11.8911 L 11.0817 11.8911 C 11.0817 8.2192 8.1385 5.235 4.4825 5.1686 L 4.4825 7.6047 Z" fill="#333333"/>	</g></svg>