<?xml version="1.0" standalone="no"?><!-- Generator: Adobe Fireworks CS5.1, Export SVG Extension by Aaron Beall (http://fireworks.abeall.com) . Version: 0.6.1  --><!DOCTYPE svg PUBLIC "-//W3C//DTD SVG 1.1//EN" "http://www.w3.org/Graphics/SVG/1.1/DTD/svg11.dtd"><svg id="Untitled-Page%201" viewBox="0 0 15 15" style="background-color:#ffffff00" version="1.1"	xmlns="http://www.w3.org/2000/svg" xmlns:xlink="http://www.w3.org/1999/xlink" xml:space="preserve"	x="0px" y="0px" width="15px" height="15px">	<g id="Layer%201">		<path d="M 15 3.7857 L 15 13.0714 C 15 13.5843 14.5802 14 14.0625 14 L 0.9375 14 C 0.4198 14 0 13.5843 0 13.0714 L 0 3.7857 C 0 3.2729 0.4198 2.8571 0.9375 2.8571 L 3.1706 2.8571 L 3.849 1.5134 C 4.0077 1.1987 4.3324 1 4.6875 1 L 10.3125 1 C 10.6676 1 10.9923 1.1987 11.151 1.5134 L 11.8294 2.8571 L 14.0625 2.8571 C 14.5802 2.8571 15 3.2729 15 3.7857 ZM 7.5 12.1429 C 9.5712 12.1429 11.25 10.48 11.25 8.4286 C 11.25 6.3773 9.5712 4.7143 7.5 4.7143 C 5.429 4.7143 3.75 6.3773 3.75 8.4286 C 3.75 10.48 5.429 12.1429 7.5 12.1429 Z" fill="#000000"/>	</g></svg>