<?xml version="1.0" standalone="no"?><!-- Generator: Adobe Fireworks CS5.1, Export SVG Extension by Aaron Beall (http://fireworks.abeall.com) . Version: 0.6.1  --><!DOCTYPE svg PUBLIC "-//W3C//DTD SVG 1.1//EN" "http://www.w3.org/Graphics/SVG/1.1/DTD/svg11.dtd"><svg id="Untitled-Page%201" viewBox="0 0 15 15" style="background-color:#ffffff00" version="1.1"	xmlns="http://www.w3.org/2000/svg" xmlns:xlink="http://www.w3.org/1999/xlink" xml:space="preserve"	x="0px" y="0px" width="15px" height="15px">	<g id="Layer%201">		<path d="M 0 7.5 C 0 3.3579 3.3577 0 7.5 0 C 11.6423 0 15 3.3579 15 7.5 C 15 11.6421 11.6423 15 7.5 15 C 3.3577 15 0 11.6421 0 7.5 ZM 6.5625 10.7813 C 6.5797 10.7813 6.5971 10.7808 6.6145 10.7799 C 6.8806 10.765 7.1281 10.6376 7.2947 10.4295 L 11.0447 5.742 C 11.1829 5.569 11.25 5.3621 11.25 5.1567 C 11.25 4.8817 11.1296 4.6093 10.8982 4.4243 C 10.7254 4.2859 10.5185 4.2188 10.3127 4.2188 C 10.0378 4.2188 9.7655 4.3393 9.5803 4.5705 L 6.4847 8.4402 L 5.3506 7.3059 C 5.1675 7.1229 4.9276 7.0314 4.688 7.0313 C 4.4479 7.0311 4.2078 7.1227 4.0247 7.3059 C 3.8416 7.4888 3.75 7.7285 3.75 7.9683 C 3.7498 8.2084 3.8413 8.4485 4.0247 8.6316 L 5.8997 10.5066 C 6.0759 10.6829 6.3146 10.7813 6.5625 10.7813 L 6.5625 10.7813 Z" fill="#000000"/>	</g></svg>