<?xml version="1.0" standalone="no"?><!-- Generator: Adobe Fireworks CS5.1, Export SVG Extension by Aaron Beall (http://fireworks.abeall.com) . Version: 0.6.1  --><!DOCTYPE svg PUBLIC "-//W3C//DTD SVG 1.1//EN" "http://www.w3.org/Graphics/SVG/1.1/DTD/svg11.dtd"><svg id="Untitled-Page%201" viewBox="0 0 14 14" style="background-color:#ffffff00" version="1.1"	xmlns="http://www.w3.org/2000/svg" xmlns:xlink="http://www.w3.org/1999/xlink" xml:space="preserve"	x="0px" y="0px" width="14px" height="14px">	<g id="Layer%201">		<path d="M 7 3 L 6 9 L 8 9 L 7 3 ZM 12 8 C 12.5523 8 12.9893 7.5523 12.9893 7 C 12.9893 6.4477 12.5523 6 12 6 C 11.4477 6 11 6.4477 11 7 C 11 7.5523 11.4477 8 12 8 ZM 6 1 L 6.005 1.095 C 6.052 1.6036 6.4791 2 7 2 C 7.5209 2 7.948 1.6036 7.995 1.095 L 8 1 C 8 0.4477 7.5523 0 7 0 C 6.4477 0 6 0.4477 6 1 ZM 1.015 7.16 C 1.0919 7.6358 1.5024 8 2 8 C 2.5523 8 3 7.5523 3 7 C 3 6.4477 2.5523 6 2 6 C 1.4477 6 1.0107 6.4477 1.0107 7 L 1.015 7.16 ZM 11.865 3.505 C 12.5735 4.4883 12.9893 5.6952 12.9893 7 C 12.9893 10.3078 10.3078 12.9893 7 12.9893 C 3.7459 12.9893 1.1002 10.3935 1.015 7.16 L 1.0107 7 C 1.0107 5.6952 1.4265 4.4883 2.135 3.505 C 2.3086 3.8012 2.6319 4 3 4 C 3.5523 4 4 3.5523 4 3 C 4 2.632 3.8011 2.3086 3.505 2.135 C 4.2332 1.6116 5.0839 1.2491 6.005 1.095 L 6 1 C 6 0.4477 6.4477 0 7 0 C 3.1339 0 0 3.134 0 7 C 0 10.866 3.1339 14 7 14 C 10.8661 14 14 10.866 14 7 C 14 3.134 10.8661 0 7 0 C 7.5523 0 8 0.4477 8 1 L 7.995 1.095 C 8.9161 1.2491 9.7668 1.6116 10.495 2.135 C 10.1989 2.3086 10 2.632 10 3 C 10 3.5523 10.4477 4 11 4 C 11.3681 4 11.6914 3.8012 11.865 3.505 Z" fill="#ffffff"/>	</g></svg>