<?xml version="1.0" standalone="no"?><!-- Generator: Adobe Fireworks CS5.1, Export SVG Extension by Aaron Beall (http://fireworks.abeall.com) . Version: 0.6.1  --><!DOCTYPE svg PUBLIC "-//W3C//DTD SVG 1.1//EN" "http://www.w3.org/Graphics/SVG/1.1/DTD/svg11.dtd"><svg id="Untitled-Page%201" viewBox="0 0 14 14" style="background-color:#ffffff00" version="1.1"	xmlns="http://www.w3.org/2000/svg" xmlns:xlink="http://www.w3.org/1999/xlink" xml:space="preserve"	x="0px" y="0px" width="14px" height="14px">	<g id="Layer%201">		<path d="M 7 0 C 3.134 0 0 3.1342 0 7 C 0 10.8661 3.134 14 7 14 C 10.8659 14 14 10.8661 14 7 C 14 3.1342 10.8659 0 7 0 ZM 8.694 12.338 C 8.1599 12.5073 7.5911 12.6001 7 12.6001 C 6.3733 12.6001 5.7741 12.4927 5.2118 12.3033 C 5.218 12.2795 4.629 12.0353 4.6224 12.0647 C 3.3187 11.4516 2.2919 10.3525 1.7737 8.9984 C 1.795 8.9947 1.5984 8.3792 1.5792 8.3827 C 1.4666 7.9397 1.4 7.4781 1.4 7 C 1.4 3.9073 3.9074 1.4 7 1.4 C 10.093 1.4 12.6004 3.9073 12.6004 7 C 12.6004 7.5258 12.5225 8.0333 12.3871 8.5157 C 12.3669 8.5119 12.1576 9.1216 12.18 9.1253 C 11.6362 10.4493 10.5994 11.516 9.2987 12.1027 C 9.2939 12.0782 8.6893 12.3174 8.694 12.338 ZM 7 3.5002 C 8.5854 3.5002 9.9247 4.5543 10.355 6 L 10.875 6 C 10.431 4.2748 8.8639 3 7 3 C 5.1361 3 3.569 4.2748 3.125 6 L 3.645 6 C 4.0753 4.5543 5.4146 3.5002 7 3.5002 ZM 6.6234 10.542 L 8.2061 10.0144 L 4.8648 6.4094 L 6.6234 10.542 Z" fill="#ffffff"/>	</g></svg>