<?xml version="1.0" standalone="no"?><!-- Generator: Adobe Fireworks CS5.1, Export SVG Extension by Aaron Beall (http://fireworks.abeall.com) . Version: 0.6.1  --><!DOCTYPE svg PUBLIC "-//W3C//DTD SVG 1.1//EN" "http://www.w3.org/Graphics/SVG/1.1/DTD/svg11.dtd"><svg id="Untitled-Page%201" viewBox="0 0 14 14" style="background-color:#ffffff00" version="1.1"	xmlns="http://www.w3.org/2000/svg" xmlns:xlink="http://www.w3.org/1999/xlink" xml:space="preserve"	x="0px" y="0px" width="14px" height="14px">	<g id="Layer%201">		<path id="Shape%20598" d="M 7 0 C 3.134 0 0 3.1341 0 7 C 0 10.8662 3.134 14 7 14 C 10.8659 14 14 10.8662 14 7 C 14 3.1341 10.8659 0 7 0 ZM 4.6224 12.0647 C 3.3187 11.4516 2.2919 10.3526 1.7737 8.9984 C 1.8938 8.9777 2.0161 8.9646 2.1424 8.9646 C 3.5487 8.9646 4.6885 10.1047 4.6885 11.5114 C 4.6885 11.7023 4.6625 11.8863 4.6224 12.0647 ZM 9.2987 12.1026 C 9.269 11.9517 9.2486 11.7969 9.2486 11.6373 C 9.2486 10.2307 10.3887 9.0906 11.7951 9.0906 C 11.9267 9.0906 12.0545 9.1049 12.18 9.1253 C 11.6362 10.4494 10.5994 11.516 9.2987 12.1026 ZM 11.7951 8.4542 C 10.0369 8.4542 8.6119 9.8791 8.6119 11.6373 C 8.6119 11.8786 8.6425 12.112 8.694 12.338 C 8.1599 12.5073 7.5911 12.6001 7 12.6001 C 6.3733 12.6001 5.7741 12.4927 5.2118 12.3033 C 5.2782 12.0487 5.3251 11.7866 5.3251 11.5114 C 5.3251 9.753 3.9002 8.3282 2.1424 8.3282 C 1.9496 8.3282 1.7624 8.3492 1.5792 8.3827 C 1.4666 7.9397 1.4 7.4781 1.4 7 C 1.4 3.9073 3.9074 1.4 7 1.4 C 10.093 1.4 12.6004 3.9073 12.6004 7 C 12.6004 7.5258 12.5225 8.0333 12.3871 8.5157 C 12.1944 8.4794 11.998 8.4542 11.7951 8.4542 ZM 5.2208 4.5855 C 6.0834 8.4669 7.1974 8.539 7.5569 8.4312 C 8.8867 7.1011 5.2208 4.5855 5.2208 4.5855 ZM 2.6692 6.6341 C 2.3912 6.6341 2.1658 6.8595 2.1658 7.1377 C 2.1658 7.4154 2.3912 7.6407 2.6692 7.6407 C 2.9472 7.6407 3.1723 7.4154 3.1723 7.1377 C 3.1723 6.8595 2.9472 6.6341 2.6692 6.6341 ZM 3.2084 4.3701 C 2.9304 4.3701 2.7048 4.5956 2.7048 4.8732 C 2.7048 5.1512 2.9304 5.3764 3.2084 5.3764 C 3.4863 5.3764 3.7115 5.1512 3.7115 4.8732 C 3.7115 4.5956 3.4863 4.3701 3.2084 4.3701 ZM 4.7537 2.7171 C 4.4756 2.7171 4.2506 2.9419 4.2506 3.2202 C 4.2506 3.4982 4.4756 3.7229 4.7537 3.7229 C 5.0313 3.7229 5.2567 3.4982 5.2567 3.2202 C 5.2567 2.9419 5.0313 2.7171 4.7537 2.7171 ZM 11.4738 6.6341 C 11.1964 6.6341 10.9712 6.8595 10.9712 7.1377 C 10.9712 7.4154 11.1964 7.6407 11.4738 7.6407 C 11.7521 7.6407 11.9778 7.4154 11.9778 7.1377 C 11.9778 6.8595 11.7521 6.6341 11.4738 6.6341 ZM 11.4388 4.8732 C 11.4388 4.5956 11.2132 4.3701 10.935 4.3701 C 10.6572 4.3701 10.4321 4.5956 10.4321 4.8732 C 10.4321 5.1512 10.6572 5.3764 10.935 5.3764 C 11.2132 5.3764 11.4388 5.1512 11.4388 4.8732 ZM 9.3898 2.7171 C 9.1118 2.7171 8.8867 2.9419 8.8867 3.2202 C 8.8867 3.4982 9.1118 3.7229 9.3898 3.7229 C 9.6678 3.7229 9.893 3.4982 9.893 3.2202 C 9.893 2.9419 9.6678 2.7171 9.3898 2.7171 ZM 7.0177 3.1485 C 7.2958 3.1485 7.5214 2.9231 7.5214 2.6453 C 7.5214 2.3674 7.2958 2.1419 7.0177 2.1419 C 6.7403 2.1419 6.5147 2.3674 6.5147 2.6453 C 6.5147 2.9231 6.7403 3.1485 7.0177 3.1485 Z" fill="#ffffff"/>	</g></svg>