<?xml version="1.0" standalone="no"?><!-- Generator: Adobe Fireworks CS5.1, Export SVG Extension by Aaron Beall (http://fireworks.abeall.com) . Version: 0.6.1  --><!DOCTYPE svg PUBLIC "-//W3C//DTD SVG 1.1//EN" "http://www.w3.org/Graphics/SVG/1.1/DTD/svg11.dtd"><svg id="Untitled-Page%201" viewBox="0 0 14 14" style="background-color:#ffffff00" version="1.1"	xmlns="http://www.w3.org/2000/svg" xmlns:xlink="http://www.w3.org/1999/xlink" xml:space="preserve"	x="0px" y="0px" width="14px" height="14px">	<g id="Layer%201">		<path d="M 2 9 L 2 10 L 3 10 L 3 9 L 2 9 ZM 11 9 L 11 10 L 12 10 L 12 9 L 11 9 ZM 10 6 L 10 7 L 11 7 L 11 6 L 10 6 ZM 3 6 L 3 7 L 4 7 L 4 6 L 3 6 ZM 6 4 L 6 4.095 L 6 5 L 7 5 L 8 5 L 8 4.095 L 8 4 L 7 4.0107 C 6 4.0107 6 4 6 4 ZM 1.0107 10 C 1.0107 7.0329 3.1682 4.5709 6 4.095 L 6 4 C 6 4 6 4.0107 7 4.0107 L 8 4 L 8 4.095 C 10.8318 4.5709 12.9893 7.0329 12.9893 10 C 13.3275 10.2534 13.6468 10.527 13.95 10.82 C 13.9814 10.5508 14 10.2776 14 10 C 14 6.134 10.8661 3 7 3 C 3.1339 3 0 6.134 0 10 C 0 10.2776 0.0186 10.5508 0.05 10.82 C 0.3532 10.527 0.6725 10.2534 1.0107 10 ZM 7 6 L 6 12 L 8 12 L 7 6 Z" fill="#ffffff"/>	</g></svg>