<?xml version="1.0" standalone="no"?><!-- Generator: Adobe Fireworks CS5.1, Export SVG Extension by Aaron Beall (http://fireworks.abeall.com) . Version: 0.6.1  --><!DOCTYPE svg PUBLIC "-//W3C//DTD SVG 1.1//EN" "http://www.w3.org/Graphics/SVG/1.1/DTD/svg11.dtd"><svg id="Untitled-Page%201" viewBox="0 0 14 14" style="background-color:#ffffff00" version="1.1"	xmlns="http://www.w3.org/2000/svg" xmlns:xlink="http://www.w3.org/1999/xlink" xml:space="preserve"	x="0px" y="0px" width="14px" height="14px">	<g id="Layer%201">		<path d="M 9.9669 14 C 11.0717 13.3933 12.0066 12.5075 12.6784 11.4369 C 13.3985 10.3684 13.8207 9.0667 13.8207 7.6612 L 13.8207 7.5568 L 13.8207 7.4478 C 13.8207 5.6253 13.1777 3.9593 12.105 2.665 L 14 0.545 L 11.925 2.455 C 10.5796 0.9482 8.632 0 6.4683 0 C 3.6744 0 1.2441 1.579 0 3.9037 C 1.2913 1.9861 3.4658 0.7266 5.9303 0.7266 C 6.772 0.7266 7.5793 0.8728 8.3297 1.1426 C 8.0659 1.1074 7.7974 1.0899 7.5244 1.0899 C 5.1317 1.0899 3.0506 2.4831 1.9851 4.5342 C 3.091 2.8422 4.9532 1.731 7.0637 1.731 C 8.5833 1.731 9.9726 2.3057 11.045 3.26 L 6.289 7.6294 L 7.0063 8.356 L 11.33 3.53 C 11.9122 4.1172 12.3844 4.8242 12.7089 5.6113 C 12.9644 6.3576 13.1034 7.1584 13.1034 7.9927 C 13.1034 9.7498 12.4875 11.3612 11.4625 12.6176 C 11.1763 12.9241 11.1915 12.9344 10.973 13.159 C 10.6637 13.4687 10.3274 13.7509 9.9669 14 Z" fill="#ffffff"/>	</g></svg>