<?xml version="1.0" standalone="no"?><!-- Generator: Adobe Fireworks CS5.1, Export SVG Extension by Aaron Beall (http://fireworks.abeall.com) . Version: 0.6.1  --><!DOCTYPE svg PUBLIC "-//W3C//DTD SVG 1.1//EN" "http://www.w3.org/Graphics/SVG/1.1/DTD/svg11.dtd"><svg id="Untitled-Page%201" viewBox="0 0 17 17" style="background-color:#ffffff00" version="1.1"	xmlns="http://www.w3.org/2000/svg" xmlns:xlink="http://www.w3.org/1999/xlink" xml:space="preserve"	x="0px" y="0px" width="17px" height="17px">	<g id="Layer%201">		<path d="M 1 5.3125 L 16 5.3125 L 16 3.1875 C 16 2.6007 15.5203 2.125 14.9286 2.125 L 13.8571 2.125 L 13.8571 1.0625 C 13.8571 0.4757 13.3774 0 12.7857 0 C 12.194 0 11.7143 0.4757 11.7143 1.0625 L 11.7143 2.125 L 5.2857 2.125 L 5.2857 1.0625 C 5.2857 0.4757 4.806 0 4.2143 0 C 3.6226 0 3.1429 0.4757 3.1429 1.0625 L 3.1429 2.125 L 2.0714 2.125 C 1.4797 2.125 1 2.6007 1 3.1875 L 1 5.3125 ZM 7.9826 8.8771 C 8.3253 9.1285 8.5 9.4769 8.5 9.9223 C 8.5 10.2958 8.3904 10.6155 8.1711 10.8777 C 7.9518 11.1399 7.6434 11.3195 7.246 11.4164 L 7.246 11.438 C 7.7119 11.4955 8.0683 11.6355 8.3081 11.8582 C 8.548 12.0809 8.6679 12.3754 8.6679 12.749 C 8.6679 13.2949 8.4657 13.7223 8.0649 14.024 C 7.6605 14.3257 7.0883 14.4766 6.3448 14.4766 C 5.7178 14.4766 5.1627 14.376 4.683 14.1713 L 4.683 13.1548 C 4.9023 13.2769 5.149 13.3739 5.4163 13.4457 C 5.6835 13.5212 5.9474 13.5571 6.2112 13.5571 C 6.6121 13.5571 6.9067 13.4888 7.0986 13.3524 C 7.2905 13.2159 7.3864 12.9968 7.3864 12.6951 C 7.3864 12.4221 7.2734 12.2318 7.0541 12.1168 C 6.8348 12.0055 6.4819 11.948 6.0022 11.948 L 5.567 11.948 L 5.567 11.0285 L 6.009 11.0285 C 6.4545 11.0285 6.78 10.9639 6.9855 10.831 C 7.1911 10.7017 7.2939 10.4754 7.2939 10.1558 C 7.2939 9.6673 7.0198 9.4195 6.4784 9.4195 C 6.2866 9.4195 6.0947 9.4554 5.8994 9.52 C 5.7041 9.5883 5.4882 9.7032 5.2518 9.8648 L 4.6899 9.0495 C 5.2141 8.6832 5.8411 8.5 6.571 8.5 C 7.1671 8.5 7.6366 8.6257 7.9826 8.8771 ZM 12.317 8.5 L 12.317 14.4766 L 11.0938 14.4766 L 11.0938 11.0321 L 11.104 10.4647 L 11.1246 9.8469 C 10.919 10.0552 10.7785 10.1953 10.6997 10.2599 L 10.035 10.8095 L 9.4457 10.0372 L 11.313 8.5 L 12.317 8.5 ZM 1 6.375 L 1 15.9375 C 1 16.5243 1.4797 17 2.0714 17 L 14.9286 17 C 15.5203 17 16 16.5243 16 15.9375 L 16 6.375 L 1 6.375 Z" fill="#000000"/>	</g></svg>