<?xml version="1.0" standalone="no"?><!-- Generator: Adobe Fireworks CS5.1, Export SVG Extension by Aaron Beall (http://fireworks.abeall.com) . Version: 0.6.1  --><!DOCTYPE svg PUBLIC "-//W3C//DTD SVG 1.1//EN" "http://www.w3.org/Graphics/SVG/1.1/DTD/svg11.dtd"><svg id="Untitled-Page%201" viewBox="0 0 16 16" style="background-color:#ffffff00" version="1.1"	xmlns="http://www.w3.org/2000/svg" xmlns:xlink="http://www.w3.org/1999/xlink" xml:space="preserve"	x="0px" y="0px" width="16px" height="16px">	<g id="Layer%201">		<path id="Shape%20639" d="M 15.0276 2.8785 C 15.5645 2.8785 16 2.4582 16 1.9393 C 16 1.4203 15.5645 1 15.0276 1 C 14.4907 1 14.0557 1.4203 14.0557 1.9393 C 14.0557 2.1022 14.0984 2.2556 14.1737 2.389 L 12.9911 3.3247 L 7.5725 3.3296 L 0.5302 3.3232 C 0.3077 3.3228 0.1091 3.457 0.0325 3.6589 C -0.0441 3.8615 0.0176 4.0879 0.1877 4.2265 L 7.061 9.8536 L 7.061 14.4625 L 5.4025 14.4625 C 5.2496 14.4625 5.1251 14.5825 5.1251 14.7315 C 5.1251 14.8797 5.2496 15 5.4025 15 L 9.7417 15 C 9.8954 15 10.0191 14.8797 10.0191 14.7315 C 10.0191 14.5825 9.8954 14.4625 9.7417 14.4625 L 8.0839 14.4625 L 8.0839 9.8536 L 14.9574 4.2265 C 15.127 4.0879 15.189 3.8615 15.112 3.6589 C 15.0354 3.457 14.8365 3.3228 14.614 3.3232 L 13.7172 3.3242 L 14.4839 2.7183 C 14.6391 2.8194 14.8261 2.8785 15.0276 2.8785 ZM 7.5725 8.9288 L 1.9778 4.3493 L 6.9615 4.3538 L 6.9615 4.3549 L 7.5725 4.3547 L 8.1829 4.3549 L 8.1829 4.3538 L 11.6949 4.3511 L 10.3777 5.3926 L 3.9803 5.3926 L 7.5558 8.2369 L 10.9834 5.4874 L 12.4203 4.3499 L 13.1672 4.3493 L 7.5725 8.9288 Z" fill="#333333"/>	</g></svg>