<?xml version="1.0" standalone="no"?><!-- Generator: Adobe Fireworks CS5.1, Export SVG Extension by Aaron Beall (http://fireworks.abeall.com) . Version: 0.6.1  --><!DOCTYPE svg PUBLIC "-//W3C//DTD SVG 1.1//EN" "http://www.w3.org/Graphics/SVG/1.1/DTD/svg11.dtd"><svg id="Untitled-Page%201" viewBox="0 0 16 16" style="background-color:#ffffff00" version="1.1"	xmlns="http://www.w3.org/2000/svg" xmlns:xlink="http://www.w3.org/1999/xlink" xml:space="preserve"	x="0px" y="0px" width="16px" height="16px">	<defs>		<filter id="filter1" x="-100%" y="-100%" width="300%" height="300%">			<!-- Drop Shadow -->			<feOffset result="out" in="SourceGraphic" dx="0" dy="1"/>			<feColorMatrix result="out" in="out" type="matrix" values="0 0 0 1 0  0 0 0 1 0  0 0 0 1 0  0 0 0 1 0"/>			<feGaussianBlur result="out" in="out" stdDeviation="0"/>			<feBlend in="SourceGraphic" in2="out" mode="normal" result="Drop_Shadow1"/>		</filter>	</defs>	<g id="Layer%201">		<path id="Shape%20117" filter="url(#filter1)" d="M 0 4.1337 L 0 13.2102 C 0 13.6465 0.3589 14 0.8011 14 L 2.3597 14 L 2.3597 3.3437 L 0.8011 3.3437 C 0.3589 3.3437 0 3.6974 0 4.1337 ZM 15.199 3.3437 L 13.7596 3.3437 L 13.7596 14 L 15.199 14 C 15.6414 14 16 13.6465 16 13.2102 L 16 4.1337 C 16 3.6974 15.6414 3.3437 15.199 3.3437 ZM 10.2283 1.7896 C 10.2283 1.3535 9.8693 1 9.4269 1 L 6.5737 1 C 6.1313 1 5.7726 1.3535 5.7726 1.7896 L 5.7726 3.3437 L 3.0065 3.3437 L 3.0065 14 L 13.1127 14 L 13.1127 3.3437 L 10.2283 3.3437 L 10.2283 1.7896 ZM 9.631 3.2706 L 6.3701 3.2706 L 6.3701 1.8461 C 6.3701 1.6331 6.5451 1.4604 6.7607 1.4604 L 9.2398 1.4604 C 9.4561 1.4604 9.631 1.6331 9.631 1.8461 L 9.631 3.2706 Z" fill="#21a2ce"/>	</g></svg>