<?xml version="1.0" standalone="no"?><!-- Generator: Adobe Fireworks CS5.1, Export SVG Extension by Aaron Beall (http://fireworks.abeall.com) . Version: 0.6.1  --><!DOCTYPE svg PUBLIC "-//W3C//DTD SVG 1.1//EN" "http://www.w3.org/Graphics/SVG/1.1/DTD/svg11.dtd"><svg id="Untitled-Page%201" viewBox="0 0 14 14" style="background-color:#ffffff00" version="1.1"	xmlns="http://www.w3.org/2000/svg" xmlns:xlink="http://www.w3.org/1999/xlink" xml:space="preserve"	x="0px" y="0px" width="14px" height="14px">	<g id="Layer%201">		<path d="M 6.9996 0 C 3.1336 0.0002 0 3.1338 0 7.0001 C 0 10.8658 3.1336 13.9998 6.9996 14 C 10.866 13.9998 13.9996 10.8658 14 7.0001 C 13.9996 3.1338 10.866 0 6.9996 0 ZM 11.2483 11.2479 C 10.1591 12.3362 8.6607 13.0077 6.9996 13.0077 C 5.3393 13.0077 3.8405 12.3362 2.7517 11.2479 C 1.6634 10.1592 0.9921 8.6608 0.9916 7.0001 C 0.9921 5.3397 1.6634 3.8406 2.7517 2.7514 C 3.8405 1.6634 5.3393 0.9923 6.9996 0.9923 C 8.6607 0.9923 10.1591 1.6634 11.2483 2.7514 C 12.3361 3.8406 13.0074 5.3397 13.0074 7.0001 C 13.0074 8.6608 12.3361 10.1592 11.2483 11.2479 ZM 6.4913 11 L 7.7376 11 L 7.7376 9.9433 L 6.4697 9.9433 L 6.4913 11 ZM 5 5.2923 L 5.9977 5.2923 L 6.0133 5.0595 L 6.7928 4.1461 L 7.0267 4.1461 L 7.1981 4.1461 L 7.9932 5.0595 L 7.9932 5.1132 L 7.9932 5.6505 C 7.9932 5.7579 7.962 5.8654 7.8997 5.9728 L 7.6814 6.4026 C 7.4631 6.8145 6.7437 7.1078 6.619 7.4302 C 6.4942 7.7526 6.42 8.1853 6.42 8.6868 L 7.5172 8.7077 L 7.5885 7.8586 C 7.5885 7.6258 8.2032 7.2564 8.3591 6.9161 C 8.5618 6.4505 8.7333 6.1103 8.8892 5.8954 C 9.045 5.6805 8.9909 5.3281 8.9909 4.9699 L 8.9909 4.379 L 7.7905 3 L 7.0422 3 L 6.2004 3 L 5 4.379 L 5 5.2923 Z" fill="#ffffff"/>	</g></svg>