<?xml version="1.0" standalone="no"?><!-- Generator: Adobe Fireworks CS5.1, Export SVG Extension by Aaron Beall (http://fireworks.abeall.com) . Version: 0.6.1  --><!DOCTYPE svg PUBLIC "-//W3C//DTD SVG 1.1//EN" "http://www.w3.org/Graphics/SVG/1.1/DTD/svg11.dtd"><svg id="Untitled-Page%201" viewBox="0 0 15 15" style="background-color:#ffffff00" version="1.1"	xmlns="http://www.w3.org/2000/svg" xmlns:xlink="http://www.w3.org/1999/xlink" xml:space="preserve"	x="0px" y="0px" width="15px" height="15px">	<path d="M 9.375 1.875 L 9.375 2.8125 C 9.375 3.8481 8.5356 4.6875 7.5 4.6875 C 6.4644 4.6875 5.625 3.8481 5.625 2.8125 L 5.625 1.875 C 5.625 0.8394 6.4644 0 7.5 0 C 8.5356 0 9.375 0.8394 9.375 1.875 ZM 10.1752 6.6998 C 10.1313 6.6559 9.0823 5.625 7.5 5.625 C 5.9177 5.625 4.8687 6.6559 4.8248 6.6998 C 4.7369 6.7877 4.6875 6.907 4.6875 7.0313 L 4.6875 10.7813 C 4.6875 10.9589 4.7878 11.1211 4.9466 11.2006 L 5.6645 11.5594 L 6.0984 14.5975 C 6.1315 14.8285 6.3293 15 6.5625 15 L 8.4375 15 C 8.6707 15 8.8685 14.8285 8.9016 14.5975 L 9.3355 11.5594 L 10.0534 11.2006 C 10.2122 11.1211 10.3125 10.9589 10.3125 10.7813 L 10.3125 7.0313 C 10.3125 6.907 10.2631 6.7877 10.1752 6.6998 ZM 14.5313 3.2813 L 14.5313 3.9844 C 14.5313 4.7611 13.9017 5.3906 13.125 5.3906 C 12.3483 5.3906 11.7188 4.7611 11.7188 3.9844 L 11.7188 3.2813 C 11.7188 2.5045 12.3483 1.875 13.125 1.875 C 13.9017 1.875 14.5313 2.5045 14.5313 3.2813 ZM 13.125 6.0938 C 11.3853 6.0938 11.25 6.8113 11.25 7.0313 L 11.25 9.8438 C 11.25 10.0005 11.3283 10.1468 11.4587 10.2338 L 11.9775 10.5796 L 12.1898 12.7029 C 12.2138 12.9426 12.4155 13.125 12.6563 13.125 L 13.5938 13.125 C 13.8345 13.125 14.0362 12.9426 14.0602 12.7029 L 14.2725 10.5796 L 14.7913 10.2338 C 14.9217 10.1468 15 10.0005 15 9.8438 L 15 7.0313 C 15 6.8113 14.8647 6.0938 13.125 6.0938 ZM 3.2813 3.2813 L 3.2813 3.9844 C 3.2813 4.7611 2.6517 5.3906 1.875 5.3906 C 1.0983 5.3906 0.4688 4.7611 0.4688 3.9844 L 0.4688 3.2813 C 0.4688 2.5045 1.0983 1.875 1.875 1.875 C 2.6517 1.875 3.2813 2.5045 3.2813 3.2813 ZM 1.875 6.0938 C 0.1353 6.0938 0 6.8113 0 7.0313 L 0 9.8438 C 0 10.0005 0.0783 10.1468 0.2087 10.2338 L 0.7275 10.5796 L 0.9398 12.7029 C 0.9638 12.9426 1.1655 13.125 1.4063 13.125 L 2.3438 13.125 C 2.5845 13.125 2.7862 12.9426 2.8102 12.7029 L 3.0225 10.5796 L 3.5413 10.2338 C 3.6717 10.1468 3.75 10.0005 3.75 9.8438 L 3.75 7.0313 C 3.75 6.8113 3.6147 6.0938 1.875 6.0938 Z" fill="#000000"/></svg>