<?xml version="1.0" standalone="no"?><!-- Generator: Adobe Fireworks CS5.1, Export SVG Extension by Aaron Beall (http://fireworks.abeall.com) . Version: 0.6.1  --><!DOCTYPE svg PUBLIC "-//W3C//DTD SVG 1.1//EN" "http://www.w3.org/Graphics/SVG/1.1/DTD/svg11.dtd"><svg id="Untitled-Page%201" viewBox="0 0 19 19" style="background-color:#ffffff00" version="1.1"	xmlns="http://www.w3.org/2000/svg" xmlns:xlink="http://www.w3.org/1999/xlink" xml:space="preserve"	x="0px" y="0px" width="19px" height="19px">	<defs>		<filter id="filter1" x="-100%" y="-100%" width="300%" height="300%">			<!-- Drop Shadow -->			<feOffset result="out" in="SourceGraphic" dx="0" dy="1"/>			<feColorMatrix result="out" in="out" type="matrix" values="0 0 0 1 0  0 0 0 1 0  0 0 0 1 0  0 0 0 1 0"/>			<feGaussianBlur result="out" in="out" stdDeviation="0"/>			<feBlend in="SourceGraphic" in2="out" mode="normal" result="Drop_Shadow1"/>		</filter>	</defs>	<g id="Layer%201">		<path filter="url(#filter1)" d="M 2.65 6.225 C 2.147 7.3298 1.875 8.5713 1.875 9.875 L 1.88 10.125 C 1.7009 9.7898 1.625 9.2787 1.625 8.4941 C 1.625 6.9456 2.0231 6.3947 2.65 6.225 ZM 16.75 5.265 C 15.4216 3.2011 13.1294 1.625 9.875 1.625 C 6.9196 1.625 4.5427 3.0743 3.17 5.255 C 1.6149 5.3472 0.625 5.8617 0.625 8.4941 C 0.625 10.3145 0.9943 11.1214 2.01 11.475 C 2.5914 14.9849 5.1027 18.375 9.875 18.375 C 13.7077 18.375 17.3392 15.7297 18.015 11.36 C 18.8564 10.9622 19.375 10.1511 19.375 8.4941 C 19.375 5.933 18.3047 5.3779 16.75 5.265 ZM 18.125 9.875 C 18.125 8.6906 17.8486 7.4336 17.3 6.265 C 18.0463 6.4141 18.375 6.9228 18.375 8.4941 C 18.375 9.1176 18.2849 9.572 18.125 9.905 L 18.125 9.875 ZM 2.925 10.715 C 2.8928 10.4294 2.875 10.1495 2.875 9.875 C 2.875 8.5696 3.2063 7.2927 3.82 6.185 C 4.1525 6.2094 4.5092 6.2441 4.875 6.2441 C 7.375 6.2441 8.375 5.7441 8.375 8.4941 C 8.375 11.2441 6.625 10.7441 4.875 10.7441 C 4.0428 10.7441 3.4063 10.7702 2.925 10.715 ZM 17.125 9.875 C 17.125 10.1578 17.1086 10.4343 17.08 10.705 C 16.4514 10.8453 15.6639 10.7441 14.875 10.7441 C 12.375 10.7441 11.625 10.9941 11.625 8.4941 C 11.625 5.4941 13.125 6.2441 14.875 6.2441 C 15.3411 6.2441 15.7549 6.2254 16.12 6.215 C 16.7856 7.3781 17.125 8.678 17.125 9.875 ZM 10.655 7.745 L 9.34 7.745 C 9.0614 5.033 7.1805 5.2441 4.875 5.2441 L 4.445 5.24 C 5.6678 3.6727 7.5456 2.625 9.875 2.625 C 12.3674 2.625 14.2377 3.7239 15.455 5.24 L 14.875 5.2441 C 12.5694 5.2441 10.9004 5.0327 10.655 7.745 ZM 9.36 8.975 L 10.635 8.975 C 10.7449 11.5219 11.8077 11.7441 14.875 11.7441 C 15.6118 11.7441 16.3035 11.7432 16.915 11.66 C 16.0839 15.15 12.8882 17.375 9.875 17.375 C 5.976 17.375 3.763 14.5089 3.095 11.685 C 3.5947 11.7317 4.1838 11.7441 4.875 11.7441 C 7.2452 11.7441 9.1669 11.7448 9.36 8.975 ZM 5 8.9744 C 5 9.4276 5.3582 9.7949 5.8 9.7949 C 6.2418 9.7949 6.6 9.4276 6.6 8.9744 C 6.6 8.5212 6.2418 8.1539 5.8 8.1539 C 5.3582 8.1539 5 8.5212 5 8.9744 ZM 13.4 8.9744 C 13.4 9.4276 13.7582 9.7949 14.2 9.7949 C 14.6418 9.7949 15 9.4276 15 8.9744 C 15 8.5212 14.6418 8.1539 14.2 8.1539 C 13.7582 8.1539 13.4 8.5212 13.4 8.9744 ZM 6.1835 13.5776 C 6.1835 13.5776 7.8728 16.8093 11.8003 16.0703 C 11.8003 16.0703 13.9606 15.3502 14.3756 13.7073 C 14.3756 13.7073 10.4749 16.5908 6.1835 13.5776 Z" fill="#21a2ce"/>	</g></svg>