<?xml version="1.0" standalone="no"?><!-- Generator: Adobe Fireworks CS5.1, Export SVG Extension by Aaron Beall (http://fireworks.abeall.com) . Version: 0.6.1  --><!DOCTYPE svg PUBLIC "-//W3C//DTD SVG 1.1//EN" "http://www.w3.org/Graphics/SVG/1.1/DTD/svg11.dtd"><svg id="Untitled-Page%201" viewBox="0 0 16 16" style="background-color:#ffffff00" version="1.1"	xmlns="http://www.w3.org/2000/svg" xmlns:xlink="http://www.w3.org/1999/xlink" xml:space="preserve"	x="0px" y="0px" width="16px" height="16px">	<g id="Layer%201">		<path d="M 11.5844 3.1418 C 11.5844 3.1418 9.1772 0.7585 5.9329 2.8784 C 5.9329 2.8784 6.0253 4.352 7.7311 4.7221 C 9.4368 5.0922 11.4902 4.5219 11.5844 3.1418 ZM 13.3826 6.3024 C 13.3826 6.3024 15.8807 9.6039 6.7035 10.5164 C 6.7035 10.5164 1.8853 10.6823 3.8777 5.5122 C 3.8777 5.5122 -1.2358 6.1074 0.2813 9.7263 C 1.7983 13.3451 4.5392 14.2617 7.4742 13.9403 C 10.4092 13.6188 15.4863 11.6238 15.9515 9.1995 C 16.4167 6.7751 13.3826 6.3024 13.3826 6.3024 ZM 8.2448 7.0925 C 9.6351 7.1374 11.0706 6.8291 11.0706 6.8291 L 10.8137 8.4094 C 8.2678 9.6323 7.2173 8.9361 7.2173 8.9361 L 8.2448 7.0925 ZM 5.676 2.8784 C 5.676 2.8784 3.8008 5.6097 4.1346 7.3558 C 4.4684 9.102 5.9329 9.4629 5.9329 9.4629 C 5.9329 9.4629 9.3877 10.7009 12.8688 7.8826 C 12.8688 7.8826 12.7192 4.9626 12.0981 3.4052 C 12.0981 3.4052 11.0894 6.2393 7.4742 5.2488 C 4.8021 4.5168 5.676 2.8784 5.676 2.8784 Z" fill="#333333"/>	</g></svg>