<?xml version="1.0" standalone="no"?><!-- Generator: Adobe Fireworks CS5.1, Export SVG Extension by Aaron Beall (http://fireworks.abeall.com) . Version: 0.6.1  --><!DOCTYPE svg PUBLIC "-//W3C//DTD SVG 1.1//EN" "http://www.w3.org/Graphics/SVG/1.1/DTD/svg11.dtd"><svg id="Untitled-Page%201" viewBox="0 0 14 14" style="background-color:#ffffff00" version="1.1"	xmlns="http://www.w3.org/2000/svg" xmlns:xlink="http://www.w3.org/1999/xlink" xml:space="preserve"	x="0px" y="0px" width="14px" height="14px">	<g id="Layer%201">		<path d="M 13.7437 6.3813 L 7.6187 0.2563 C 7.4479 0.0854 7.2239 0 7 0 C 6.7761 0 6.5521 0.0854 6.3813 0.2563 L 0.2563 6.3813 C 0.089 6.5486 0 6.7723 0 7 C 0 7.1128 0.0218 7.2265 0.0667 7.3349 C 0.2021 7.6618 0.5211 7.875 0.875 7.875 L 1.75 7.875 L 1.75 13.125 C 1.75 13.6082 2.1418 14 2.625 14 L 5.25 14 L 5.25 9.625 L 8.75 9.625 L 8.75 14 L 11.375 14 C 11.8582 14 12.25 13.6082 12.25 13.125 L 12.25 7.875 L 13.125 7.875 C 13.4789 7.875 13.7979 7.6618 13.9333 7.3349 C 13.9782 7.2265 14 7.1128 14 7 C 14 6.7723 13.911 6.5486 13.7437 6.3813 Z" fill="#000000"/>	</g></svg>