<?xml version="1.0" standalone="no"?><!-- Generator: Adobe Fireworks CS5.1, Export SVG Extension by Aaron Beall (http://fireworks.abeall.com) . Version: 0.6.1  --><!DOCTYPE svg PUBLIC "-//W3C//DTD SVG 1.1//EN" "http://www.w3.org/Graphics/SVG/1.1/DTD/svg11.dtd"><svg id="Untitled-Page%201" viewBox="0 0 18 18" style="background-color:#ffffff00" version="1.1"	xmlns="http://www.w3.org/2000/svg" xmlns:xlink="http://www.w3.org/1999/xlink" xml:space="preserve"	x="0px" y="0px" width="18px" height="18px">	<g id="Layer%201">		<path d="M 5.7198 8.253 C 6.303 8.253 6.5946 8.5016 6.5946 8.9982 C 6.5946 9.4171 6.3909 9.933 5.9839 10.5463 L 3.9461 13.6591 L 3.9461 14 L 8 14 L 8 13 L 5.5837 13 L 7.0648 10.9496 C 7.5419 10.2054 7.7808 9.4973 7.7808 8.9982 C 7.7808 8.4535 7.5948 8.0284 7.2225 7.7217 C 6.8507 7.4152 6.3355 7.262 5.6764 7.262 C 5.2813 7.262 4.9205 7.3663 4.5939 7.5737 C 4.267 7.7816 4.0282 8.0425 3.8755 8.3564 L 4.6444 8.9753 C 4.9169 8.4943 5.2753 8.253 5.7198 8.253 ZM 9.6429 14 L 10.8945 14 C 10.9915 13.6765 11.1157 12.2647 11.2679 11.8629 C 11.4203 11.4605 11.5962 11.0285 11.795 10.5661 C 11.994 10.1041 12.1989 9.6499 12.4097 9.2032 C 12.6205 8.7554 12.8214 8.3438 13.0111 7.9669 L 13.5914 7.4974 L 13.5914 7 L 9 7 L 9 8 L 11.9474 8 C 10.7851 10.1799 10.1204 12.4986 9.6429 14 ZM 17 17 L 1 17 L 1 5 L 17 5 L 17 17 ZM 15 0 L 15 3 L 13 3 L 13 0 L 6 0 L 6 3 L 4 3 L 4 0 L 0.0233 0 L 0 18 L 18 18 L 18 0 L 15 0 ZM 6 0 L 5 0 L 5 2 L 6 2 L 6 0 ZM 14 0 L 13 0 L 13 2 L 14 2 L 14 0 ZM 5.7198 8.253 C 6.303 8.253 6.5946 8.5016 6.5946 8.9982 C 6.5946 9.4171 6.3909 9.933 5.9839 10.5463 L 3.9461 13.6591 L 3.9461 14 L 8 14 L 8 13 L 5.5837 13 L 7.0648 10.9496 C 7.5419 10.2054 7.7808 9.4973 7.7808 8.9982 C 7.7808 8.4535 7.5948 8.0284 7.2225 7.7217 C 6.8507 7.4152 6.3355 7.262 5.6764 7.262 C 5.2813 7.262 4.9205 7.3663 4.5939 7.5737 C 4.267 7.7816 4.0282 8.0425 3.8755 8.3564 L 4.6444 8.9753 C 4.9169 8.4943 5.2753 8.253 5.7198 8.253 ZM 9.6429 14 L 10.8945 14 C 10.9915 13.6765 11.1157 12.2647 11.2679 11.8629 C 11.4203 11.4605 11.5962 11.0285 11.795 10.5661 C 11.994 10.1041 12.1989 9.6499 12.4097 9.2032 C 12.6205 8.7554 12.8214 8.3438 13.0111 7.9669 L 13.5914 7.4974 L 13.5914 7 L 9 7 L 9 8 L 11.9474 8 C 10.7851 10.1799 10.1204 12.4986 9.6429 14 ZM 17 17 L 1 17 L 1 5 L 17 5 L 17 17 ZM 15 0 L 15 3 L 13 3 L 13 0 L 6 0 L 6 3 L 4 3 L 4 0 L 0.0233 0 L 0 18 L 18 18 L 18 0 L 15 0 ZM 6 0 L 5 0 L 5 2 L 6 2 L 6 0 ZM 14 0 L 13 0 L 13 2 L 14 2 L 14 0 Z" fill="#333333"/>	</g></svg>