<?xml version="1.0" standalone="no"?><!-- Generator: Adobe Fireworks CS5.1, Export SVG Extension by Aaron Beall (http://fireworks.abeall.com) . Version: 0.6.1  --><!DOCTYPE svg PUBLIC "-//W3C//DTD SVG 1.1//EN" "http://www.w3.org/Graphics/SVG/1.1/DTD/svg11.dtd"><svg id="Untitled-Page%201" viewBox="0 0 16 16" style="background-color:#ffffff00" version="1.1"	xmlns="http://www.w3.org/2000/svg" xmlns:xlink="http://www.w3.org/1999/xlink" xml:space="preserve"	x="0px" y="0px" width="16px" height="16px">	<g id="Layer%201">		<path id="Shape%20837" d="M 11.8071 13.3117 L 12.618 11.9464 L 11.5579 11.3203 L 12.2896 10.0876 L 12.0349 9.0941 C 12.2233 8.9146 12.3923 8.7096 12.5318 8.4755 C 13.0867 7.5413 13.0417 6.4277 12.5303 5.5511 C 12.6801 5.1406 12.7706 4.7048 12.7718 4.2448 C 12.7642 1.858 10.5975 0.0037 8.0005 0 C 5.4025 0.0037 3.236 1.858 3.2278 4.2448 C 3.2294 4.7048 3.3202 5.1406 3.4696 5.5511 C 2.9582 6.4272 2.9133 7.5413 3.4687 8.4755 C 3.6077 8.7096 3.777 8.9146 3.965 9.0941 L 3.7101 10.0876 L 4.4424 11.3203 L 3.382 11.9464 L 4.1928 13.3117 L 3 14.0155 L 3.8371 15.425 L 5.3576 14.4683 L 6.5488 9.8322 C 6.5652 9.8292 6.5802 9.8219 6.5963 9.8185 L 6.5963 9.7646 C 6.3436 9.6234 6.1053 9.4491 5.8906 9.2353 C 4.6318 7.9807 4.6318 5.9462 5.8906 4.6923 C 6.0964 4.4869 6.3287 4.3276 6.5699 4.1897 C 5.8822 4.0387 5.1413 4.127 4.4862 4.5135 C 4.3497 4.5942 4.2289 4.691 4.1109 4.7896 C 4.0767 4.6116 4.0571 4.4298 4.0565 4.2448 C 4.0606 2.3979 5.7845 0.8292 8.0005 0.8257 C 10.2158 0.8292 11.9397 2.3979 11.9438 4.2448 C 11.9435 4.4801 11.9231 4.6465 11.8844 4.7859 C 11.7674 4.6896 11.6487 4.5934 11.5133 4.5135 C 10.9355 4.1725 10.2886 4.057 9.6716 4.1379 C 9.9482 4.2849 10.2143 4.4592 10.4479 4.6923 C 11.7068 5.9462 11.7068 7.9807 10.4479 9.2353 C 10.1883 9.4937 9.8942 9.697 9.5812 9.8491 L 9.5812 10.3378 L 10.6423 14.4683 L 12.1629 15.425 L 13 14.0155 L 11.8071 13.3117 ZM 10.3048 4.8727 C 9.1301 3.7015 7.2256 3.7015 6.051 4.8727 C 4.8759 6.044 4.8759 7.9423 6.051 9.1136 C 6.2511 9.3131 6.4737 9.4761 6.7092 9.6079 L 6.7098 10.6708 L 7.7635 11.7215 L 6.8604 12.622 L 8.027 13.7855 L 7.0109 14.7992 L 8.2153 16 L 9.4952 14.6484 L 9.4952 9.686 C 9.7875 9.5443 10.0624 9.3547 10.3048 9.1136 C 11.4792 7.9423 11.4792 6.044 10.3048 4.8727 ZM 8.8371 6.5991 C 8.4728 6.9617 7.8829 6.9612 7.519 6.5991 C 7.1555 6.2363 7.1555 5.6483 7.519 5.2852 C 7.8829 4.923 8.4728 4.923 8.8371 5.2852 C 9.2007 5.6483 9.2007 6.2363 8.8371 6.5991 Z" fill="#333333"/>	</g></svg>