<?xml version="1.0" standalone="no"?><!-- Generator: Adobe Fireworks CS5.1, Export SVG Extension by Aaron Beall (http://fireworks.abeall.com) . Version: 0.6.1  --><!DOCTYPE svg PUBLIC "-//W3C//DTD SVG 1.1//EN" "http://www.w3.org/Graphics/SVG/1.1/DTD/svg11.dtd"><svg id="Untitled-Page%201" viewBox="0 0 18 18" style="background-color:#ffffff00" version="1.1"	xmlns="http://www.w3.org/2000/svg" xmlns:xlink="http://www.w3.org/1999/xlink" xml:space="preserve"	x="0px" y="0px" width="18px" height="18px">	<g id="Layer%201">		<path d="M 16 6.75 C 16 11.6597 10.0769 17.4273 9.825 17.6705 C 9.5971 17.8901 9.2985 18 9 18 C 8.7015 18 8.4029 17.8901 8.175 17.6705 C 7.9229 17.4273 2 11.6597 2 6.75 C 2 3.0281 5.1403 0 9 0 C 12.8597 0 16 3.0281 16 6.75 ZM 9 10.125 C 10.933 10.125 12.5 8.614 12.5 6.75 C 12.5 4.8861 10.933 3.375 9 3.375 C 7.067 3.375 5.5 4.8861 5.5 6.75 C 5.5 8.614 7.067 10.125 9 10.125 Z" fill="#000000"/>	</g></svg>