<?xml version="1.0" standalone="no"?><!-- Generator: Adobe Fireworks CS5.1, Export SVG Extension by Aaron Beall (http://fireworks.abeall.com) . Version: 0.6.1  --><!DOCTYPE svg PUBLIC "-//W3C//DTD SVG 1.1//EN" "http://www.w3.org/Graphics/SVG/1.1/DTD/svg11.dtd"><svg id="Untitled-Page%201" viewBox="0 0 20 20" style="background-color:#ffffff00" version="1.1"	xmlns="http://www.w3.org/2000/svg" xmlns:xlink="http://www.w3.org/1999/xlink" xml:space="preserve"	x="0px" y="0px" width="20px" height="20px">	<defs>		<filter id="filter1" x="-100%" y="-100%" width="300%" height="300%">			<!-- Drop Shadow -->			<feOffset result="out" in="SourceGraphic" dx="0" dy="1"/>			<feColorMatrix result="out" in="out" type="matrix" values="0 0 0 1 0  0 0 0 1 0  0 0 0 1 0  0 0 0 1 0"/>			<feGaussianBlur result="out" in="out" stdDeviation="0"/>			<feBlend in="SourceGraphic" in2="out" mode="normal" result="Drop_Shadow1"/>		</filter>	</defs>	<g id="Layer%201">		<path id="Shape%20245" filter="url(#filter1)" d="M 16.2955 12.8764 L 20 12.8764 L 20 11.9152 C 20 11.9152 19.6549 11.0706 17.1699 10.4617 C 17.1699 9.9927 17.124 9.7111 17.124 9.7111 C 17.124 9.7111 17.722 8.8671 17.7682 7.6937 C 17.7682 7.5078 17.8577 6.1855 16.2955 6.1254 L 16.2955 6.1236 C 16.2916 6.1236 16.2881 6.1241 16.2842 6.1249 C 16.2799 6.1241 16.2766 6.1236 16.2727 6.1236 L 16.2727 6.1254 C 14.7103 6.1855 14.8 7.5078 14.8 7.6937 C 14.8456 8.8671 15.444 9.7111 15.444 9.7111 C 15.444 9.7111 15.3981 9.9927 15.3981 10.4617 C 13.7836 10.8566 13.0749 11.3514 12.7747 11.6497 C 12.4346 11.5477 12.0782 11.4474 11.6836 11.3506 C 11.6836 10.4479 11.5951 9.9062 11.5951 9.9062 C 11.5951 9.9062 12.7467 8.2803 12.8352 6.0238 C 12.8352 5.665 13.0075 3.1193 10.0007 3.0032 C 10.0007 3.0027 10.0007 3.0005 10.0007 3 C 9.9927 3 9.9865 3.0013 9.9786 3.0018 C 9.9703 3.0013 9.9639 3 9.9561 3 C 9.9561 3.0005 9.9561 3.0027 9.9561 3.0032 C 6.9486 3.1193 7.121 5.665 7.121 6.0238 C 7.2096 8.2803 8.3613 9.9062 8.3613 9.9062 C 8.3613 9.9062 8.2728 10.4479 8.2728 11.3506 C 7.8919 11.4442 7.5457 11.541 7.2155 11.639 C 6.9089 11.34 6.198 10.8523 4.6023 10.4617 C 4.6023 9.9927 4.5562 9.7111 4.5562 9.7111 C 4.5562 9.7111 5.1543 8.8671 5.2006 7.6937 C 5.2006 7.5078 5.2899 6.1855 3.7279 6.1254 L 3.7279 6.1236 C 3.7236 6.1236 3.7204 6.1241 3.7161 6.1249 C 3.7122 6.1241 3.709 6.1236 3.7048 6.1236 L 3.7048 6.1254 C 2.1426 6.1855 2.2321 7.5078 2.2321 7.6937 C 2.2781 8.8671 2.8763 9.7111 2.8763 9.7111 C 2.8763 9.7111 2.8304 9.9927 2.8304 10.4617 C 0.3454 11.0706 0 11.9152 0 11.9152 L 0 12.8764 L 3.7048 12.8764 L 3.7279 12.8764 L 4.2377 12.8764 C 3.0634 13.5817 2.8242 14.1488 2.8242 14.1488 L 2.8242 16 L 9.9561 16 L 10.0007 16 L 17.1322 16 L 17.1322 14.1488 C 17.1322 14.1488 16.8926 13.5817 15.7191 12.8764 L 16.2727 12.8764 L 16.2955 12.8764 Z" fill="#333333"/>	</g></svg>