<?xml version="1.0" standalone="no"?><!-- Generator: Adobe Fireworks CS5.1, Export SVG Extension by Aaron Beall (http://fireworks.abeall.com) . Version: 0.6.1  --><!DOCTYPE svg PUBLIC "-//W3C//DTD SVG 1.1//EN" "http://www.w3.org/Graphics/SVG/1.1/DTD/svg11.dtd"><svg id="Untitled-Page%201" viewBox="0 0 16 16" style="background-color:#ffffff00" version="1.1"	xmlns="http://www.w3.org/2000/svg" xmlns:xlink="http://www.w3.org/1999/xlink" xml:space="preserve"	x="0px" y="0px" width="16px" height="16px">	<g id="Layer%201">		<path id="Shape%20985" d="M 8.0472 0 L 8.0472 15.9611 L 16 15.9611 L 16 0 L 8.0472 0 ZM 10.0553 14.8349 L 8.9924 14.8349 L 8.9924 13.7479 L 10.0553 13.7479 L 10.0553 14.8349 ZM 10.0553 13.2526 L 8.9924 13.2526 L 8.9924 12.1655 L 10.0553 12.1655 L 10.0553 13.2526 ZM 10.0553 11.6698 L 8.9924 11.6698 L 8.9924 10.5829 L 10.0553 10.5829 L 10.0553 11.6698 ZM 10.0553 10.0875 L 8.9924 10.0875 L 8.9924 9.0001 L 10.0553 9.0001 L 10.0553 10.0875 ZM 10.0553 8.5047 L 8.9924 8.5047 L 8.9924 7.4178 L 10.0553 7.4178 L 10.0553 8.5047 ZM 10.0553 6.9225 L 8.9924 6.9225 L 8.9924 5.8349 L 10.0553 5.8349 L 10.0553 6.9225 ZM 10.0553 5.3396 L 8.9924 5.3396 L 8.9924 4.2521 L 10.0553 4.2521 L 10.0553 5.3396 ZM 10.0553 3.7568 L 8.9924 3.7568 L 8.9924 2.6699 L 10.0553 2.6699 L 10.0553 3.7568 ZM 10.0553 2.1744 L 8.9924 2.1744 L 8.9924 1.0871 L 10.0553 1.0871 L 10.0553 2.1744 ZM 11.7082 13.2526 L 10.6456 13.2526 L 10.6456 12.1655 L 11.7082 12.1655 L 11.7082 13.2526 ZM 11.7082 11.6698 L 10.6456 11.6698 L 10.6456 10.5829 L 11.7082 10.5829 L 11.7082 11.6698 ZM 11.7082 10.0875 L 10.6456 10.0875 L 10.6456 9.0001 L 11.7082 9.0001 L 11.7082 10.0875 ZM 11.7082 8.5047 L 10.6456 8.5047 L 10.6456 7.4178 L 11.7082 7.4178 L 11.7082 8.5047 ZM 11.7082 6.9225 L 10.6456 6.9225 L 10.6456 5.8349 L 11.7082 5.8349 L 11.7082 6.9225 ZM 11.7082 5.3396 L 10.6456 5.3396 L 10.6456 4.2521 L 11.7082 4.2521 L 11.7082 5.3396 ZM 11.7082 3.7568 L 10.6456 3.7568 L 10.6456 2.6699 L 11.7082 2.6699 L 11.7082 3.7568 ZM 11.7082 2.1744 L 10.6456 2.1744 L 10.6456 1.0871 L 11.7082 1.0871 L 11.7082 2.1744 ZM 13.3622 13.2526 L 12.2993 13.2526 L 12.2993 12.1655 L 13.3622 12.1655 L 13.3622 13.2526 ZM 13.3622 11.6698 L 12.2993 11.6698 L 12.2993 10.5829 L 13.3622 10.5829 L 13.3622 11.6698 ZM 13.3622 10.0875 L 12.2993 10.0875 L 12.2993 9.0001 L 13.3622 9.0001 L 13.3622 10.0875 ZM 13.3622 8.5047 L 12.2993 8.5047 L 12.2993 7.4178 L 13.3622 7.4178 L 13.3622 8.5047 ZM 13.3622 6.9225 L 12.2993 6.9225 L 12.2993 5.8349 L 13.3622 5.8349 L 13.3622 6.9225 ZM 13.3622 5.3396 L 12.2993 5.3396 L 12.2993 4.2521 L 13.3622 4.2521 L 13.3622 5.3396 ZM 13.3622 3.7568 L 12.2993 3.7568 L 12.2993 2.6699 L 13.3622 2.6699 L 13.3622 3.7568 ZM 13.3622 2.1744 L 12.2993 2.1744 L 12.2993 1.0871 L 13.3622 1.0871 L 13.3622 2.1744 ZM 15.0158 14.8349 L 13.9529 14.8349 L 13.9529 13.7479 L 15.0158 13.7479 L 15.0158 14.8349 ZM 15.0158 13.2526 L 13.9529 13.2526 L 13.9529 12.1655 L 15.0158 12.1655 L 15.0158 13.2526 ZM 15.0158 11.6698 L 13.9529 11.6698 L 13.9529 10.5829 L 15.0158 10.5829 L 15.0158 11.6698 ZM 15.0158 10.0875 L 13.9529 10.0875 L 13.9529 9.0001 L 15.0158 9.0001 L 15.0158 10.0875 ZM 15.0158 8.5047 L 13.9529 8.5047 L 13.9529 7.4178 L 15.0158 7.4178 L 15.0158 8.5047 ZM 15.0158 6.9225 L 13.9529 6.9225 L 13.9529 5.8349 L 15.0158 5.8349 L 15.0158 6.9225 ZM 15.0158 5.3396 L 13.9529 5.3396 L 13.9529 4.2521 L 15.0158 4.2521 L 15.0158 5.3396 ZM 15.0158 3.7568 L 13.9529 3.7568 L 13.9529 2.6699 L 15.0158 2.6699 L 15.0158 3.7568 ZM 15.0158 2.1744 L 13.9529 2.1744 L 13.9529 1.0871 L 15.0158 1.0871 L 15.0158 2.1744 ZM 1 16 L 7.3387 16 L 7.3387 5.9026 L 1 5.9026 L 1 16 ZM 5.213 6.8733 L 6.3545 6.8733 L 6.3545 8.5824 L 5.213 8.5824 L 5.213 6.8733 ZM 5.213 9.0224 L 6.3545 9.0224 L 6.3545 10.7307 L 5.213 10.7307 L 5.213 9.0224 ZM 5.213 11.1713 L 6.3545 11.1713 L 6.3545 12.8797 L 5.213 12.8797 L 5.213 11.1713 ZM 5.213 13.3198 L 6.3545 13.3198 L 6.3545 15.0287 L 5.213 15.0287 L 5.213 13.3198 ZM 3.5787 6.8733 L 4.7208 6.8733 L 4.7208 8.5824 L 3.5787 8.5824 L 3.5787 6.8733 ZM 3.5787 9.0224 L 4.7208 9.0224 L 4.7208 10.7307 L 3.5787 10.7307 L 3.5787 9.0224 ZM 3.5787 11.1713 L 4.7208 11.1713 L 4.7208 12.8797 L 3.5787 12.8797 L 3.5787 11.1713 ZM 1.9452 6.8733 L 3.0867 6.8733 L 3.0867 8.5824 L 1.9452 8.5824 L 1.9452 6.8733 ZM 1.9452 9.0224 L 3.0867 9.0224 L 3.0867 10.7307 L 1.9452 10.7307 L 1.9452 9.0224 ZM 1.9452 11.1713 L 3.0867 11.1713 L 3.0867 12.8797 L 1.9452 12.8797 L 1.9452 11.1713 ZM 1.9452 13.3198 L 3.0867 13.3198 L 3.0867 15.0287 L 1.9452 15.0287 L 1.9452 13.3198 Z" fill="#333333"/>	</g></svg>