<?xml version="1.0" standalone="no"?><!-- Generator: Adobe Fireworks CS5.1, Export SVG Extension by Aaron Beall (http://fireworks.abeall.com) . Version: 0.6.1  --><!DOCTYPE svg PUBLIC "-//W3C//DTD SVG 1.1//EN" "http://www.w3.org/Graphics/SVG/1.1/DTD/svg11.dtd"><svg id="X-1-Page%202" viewBox="0 0 14 14" style="background-color:#ffffff00" version="1.1"	xmlns="http://www.w3.org/2000/svg" xmlns:xlink="http://www.w3.org/1999/xlink" xml:space="preserve"	x="0px" y="0px" width="14px" height="14px">	<g id="Layer%201">		<path d="M 11.9499 2.0502 C 9.2163 -0.6836 4.7836 -0.6832 2.0504 2.0502 C -0.6835 4.784 -0.6834 9.216 2.0504 11.9498 C 4.7838 14.6833 9.216 14.6836 11.9499 11.9498 C 14.6833 9.2163 14.6835 4.7837 11.9499 2.0502 ZM 10.9315 9.0196 C 11.1268 9.2148 11.1268 9.5314 10.9316 9.7267 L 9.7272 10.9316 C 9.5397 11.1191 9.2075 11.1193 9.02 10.9316 L 7.0001 8.9118 L 4.9801 10.9318 C 4.8863 11.0256 4.7592 11.0782 4.6266 11.0782 C 4.4939 11.0782 4.3668 11.0256 4.273 10.9318 L 3.0684 9.7271 C 2.8731 9.5318 2.8731 9.2153 3.0684 9.02 L 5.0883 7.0001 L 3.0684 4.9801 C 2.9747 4.8863 2.922 4.7591 2.922 4.6265 C 2.922 4.4939 2.9747 4.3667 3.0684 4.2729 L 4.273 3.0685 C 4.4684 2.8734 4.7848 2.8734 4.9801 3.0685 L 7.0001 5.0884 L 9.0197 3.0686 C 9.2147 2.8733 9.5314 2.8734 9.7267 3.0685 L 10.9316 4.2731 C 11.0254 4.3669 11.0781 4.4941 11.0781 4.6267 C 11.0781 4.7593 11.0254 4.8865 10.9316 4.9802 L 8.9119 7.0001 L 10.9315 9.0196 Z" fill="#000000"/>	</g></svg>