<?xml version="1.0" standalone="no"?><!-- Generator: Adobe Fireworks CS5.1, Export SVG Extension by Aaron Beall (http://fireworks.abeall.com) . Version: 0.6.1  --><!DOCTYPE svg PUBLIC "-//W3C//DTD SVG 1.1//EN" "http://www.w3.org/Graphics/SVG/1.1/DTD/svg11.dtd"><svg id="Untitled-Page%201" viewBox="0 0 16 16" style="background-color:#ffffff00" version="1.1"	xmlns="http://www.w3.org/2000/svg" xmlns:xlink="http://www.w3.org/1999/xlink" xml:space="preserve"	x="0px" y="0px" width="16px" height="16px">	<g id="Layer%201">		<path d="M 4 12.4 L 4 15 L 16 15 L 16 12.4 L 4 12.4 ZM 0 12.4 L 0 15 L 2.6667 15 L 2.6667 12.4 L 0 12.4 ZM 4 7.2 L 4 9.8 L 16 9.8 L 16 7.2 L 4 7.2 ZM 0 7.2 L 0 9.8 L 2.6667 9.8 L 2.6667 7.2 L 0 7.2 ZM 4 2 L 4 4.6 L 16 4.6 L 16 2 L 4 2 ZM 0 2 L 0 4.6 L 2.6667 4.6 L 2.6667 2 L 0 2 Z" fill="#666666"/>	</g></svg>