<?xml version="1.0" standalone="no"?><!-- Generator: Adobe Fireworks CS5.1, Export SVG Extension by Aaron Beall (http://fireworks.abeall.com) . Version: 0.6.1  --><!DOCTYPE svg PUBLIC "-//W3C//DTD SVG 1.1//EN" "http://www.w3.org/Graphics/SVG/1.1/DTD/svg11.dtd"><svg id="Untitled-Page%201" viewBox="0 0 14 14" style="background-color:#ffffff00" version="1.1"	xmlns="http://www.w3.org/2000/svg" xmlns:xlink="http://www.w3.org/1999/xlink" xml:space="preserve"	x="0px" y="0px" width="14px" height="14px">	<g id="Layer%201">		<path id="Shape%20149" d="M 10.6474 0.0298 L 9.8883 0.0298 L 9.8603 1.6368 L 10.6194 1.6368 L 10.6474 0.0298 ZM 3.7085 0.0298 L 2.6867 0.0298 L 2.6587 1.6368 L 3.6805 1.6368 L 3.7085 0.0298 ZM 10.9447 0 L 10.9447 2.0206 L 9.4454 2.1015 L 9.4454 0.0809 L 4.0415 0 L 4.0415 2.0206 L 2.3152 2.0206 L 2.3152 0 L 0 0 L 0 13.9702 L 14 14 L 14 0.0298 L 10.9447 0 ZM 12.9879 12.8991 L 1.2852 12.8991 L 1.2852 3.5453 L 12.9879 3.5453 L 12.9879 12.8991 ZM 7.5 10.8509 L 8.4735 10.8509 C 8.5489 10.5993 8.6455 10.317 8.764 10.0045 C 8.8825 9.6915 9.0193 9.3555 9.1739 8.9959 C 9.3287 8.6365 9.4881 8.2832 9.652 7.9359 C 9.816 7.5876 9.9721 7.2674 10.1197 6.9742 L 10.5711 6.1049 L 10.5711 5.718 L 7.1208 5.718 L 7.1208 6.5561 L 9.4133 6.5561 C 8.5092 8.2515 7.8715 9.6831 7.5 10.8509 ZM 4.4488 6.419 C 4.9024 6.419 5.1291 6.6124 5.1291 6.9986 C 5.1291 7.3244 4.9707 7.7257 4.6542 8.2026 L 3.0692 10.5857 L 3.0692 10.8509 L 6.3489 10.8509 L 6.3489 10.0447 L 4.4696 10.0447 L 5.4949 8.4499 C 5.8659 7.8711 6.0518 7.3868 6.0518 6.9986 C 6.0518 6.5749 5.907 6.2443 5.6175 6.0057 C 5.3283 5.7674 4.9276 5.6482 4.415 5.6482 C 4.1077 5.6482 3.8271 5.7294 3.5731 5.8907 C 3.3188 6.0523 3.1331 6.2553 3.0143 6.4995 L 3.6123 6.9808 C 3.8243 6.6067 4.103 6.419 4.4488 6.419 Z" fill="#333333"/>	</g></svg>