<?xml version="1.0" standalone="no"?><!-- Generator: Adobe Fireworks CS5.1, Export SVG Extension by Aaron Beall (http://fireworks.abeall.com) . Version: 0.6.1  --><!DOCTYPE svg PUBLIC "-//W3C//DTD SVG 1.1//EN" "http://www.w3.org/Graphics/SVG/1.1/DTD/svg11.dtd"><svg id="Untitled-Page%201" viewBox="0 0 16 16" style="background-color:#ffffff00" version="1.1"	xmlns="http://www.w3.org/2000/svg" xmlns:xlink="http://www.w3.org/1999/xlink" xml:space="preserve"	x="0px" y="0px" width="16px" height="16px">	<g id="Layer%201">		<path d="M 16 7.5 L 16 8.5 C 16 8.7506 15.8145 8.9625 15.5662 8.9956 L 13.3459 9.2916 C 13.2102 9.8556 12.9885 10.3861 12.6938 10.8674 L 14.054 12.646 C 14.2062 12.845 14.1875 13.126 14.0103 13.3032 L 13.3032 14.0104 C 13.2063 14.1074 13.0783 14.1569 12.9495 14.1569 C 12.843 14.1569 12.7361 14.1229 12.646 14.0541 L 10.8674 12.6938 C 10.386 12.9885 9.8557 13.2102 9.2917 13.3459 L 8.9956 15.566 C 8.9626 15.8145 8.7507 16 8.5 16 L 7.5 16 C 7.2493 16 7.0374 15.8145 7.0044 15.566 L 6.7083 13.3459 C 6.1443 13.2102 5.614 12.9885 5.1326 12.6938 L 3.354 14.054 C 3.2639 14.1228 3.157 14.1567 3.0505 14.1567 C 2.9217 14.1567 2.7937 14.1073 2.6968 14.0103 L 1.9895 13.3032 C 1.8123 13.1261 1.7937 12.8451 1.946 12.646 L 3.3062 10.8673 C 3.0115 10.386 2.7898 9.8556 2.6541 9.2916 L 0.4338 8.9956 C 0.1855 8.9625 0 8.7506 0 8.5 L 0 7.5 C 0 7.2494 0.1855 7.0375 0.4338 7.0044 L 2.6541 6.7084 C 2.7898 6.1444 3.0115 5.614 3.3062 5.1327 L 1.946 3.354 C 1.7937 3.1549 1.8123 2.8739 1.9895 2.6968 L 2.6968 1.9896 C 2.7937 1.8926 2.9217 1.8431 3.0505 1.8431 C 3.157 1.8431 3.2639 1.8771 3.354 1.9459 L 5.1326 3.3062 C 5.614 3.0115 6.1443 2.7898 6.7083 2.6541 L 7.0044 0.434 C 7.0374 0.1855 7.2493 0 7.5 0 L 8.5 0 C 8.7507 0 8.9626 0.1855 8.9956 0.434 L 9.2917 2.6541 C 9.8557 2.7898 10.386 3.0115 10.8674 3.3062 L 12.646 1.9459 C 12.7361 1.877 12.843 1.8431 12.9495 1.8431 C 13.0783 1.8431 13.2063 1.8926 13.3032 1.9896 L 14.0105 2.6968 C 14.1877 2.8739 14.2063 3.155 14.054 3.354 L 12.6938 5.1327 C 12.9885 5.614 13.2102 6.1444 13.3459 6.7084 L 15.5662 7.0044 C 15.8145 7.0375 16 7.2494 16 7.5 ZM 8 11 C 9.657 11 11 9.6569 11 8 C 11 6.3431 9.657 5 8 5 C 6.343 5 5 6.3431 5 8 C 5 9.6569 6.343 11 8 11 Z" fill="#22a1ce"/>	</g></svg>