<?xml version="1.0" standalone="no"?><!-- Generator: Adobe Fireworks CS5.1, Export SVG Extension by Aaron Beall (http://fireworks.abeall.com) . Version: 0.6.1  --><!DOCTYPE svg PUBLIC "-//W3C//DTD SVG 1.1//EN" "http://www.w3.org/Graphics/SVG/1.1/DTD/svg11.dtd"><svg id="Untitled-Page%201" viewBox="0 0 14 14" style="background-color:#ffffff00" version="1.1"	xmlns="http://www.w3.org/2000/svg" xmlns:xlink="http://www.w3.org/1999/xlink" xml:space="preserve"	x="0px" y="0px" width="14px" height="14px">	<g id="Layer%201">		<path id="Shape%20374" d="M 10.4518 10.4617 L 7.7376 10.4617 C 6.034 10.4787 6.117 9.4181 6.0951 9.1018 L 6.0957 9.1018 L 6.0957 7.1585 L 10.4518 7.1585 C 11.3069 7.1585 12 6.3677 12 5.3922 C 12 4.4164 11.3069 3.6255 10.4518 3.6255 L 6.0957 3.6255 L 6.0957 1.7663 C 6.0957 0.7913 5.4031 0 4.5483 0 C 3.6934 0 3 0.7913 3 1.7663 L 3 9.1018 L 3.0064 9.1018 C 2.9889 13.0328 5.3185 14.0871 7.5528 13.9945 L 10.4518 13.9945 C 11.3069 13.9945 12 13.2038 12 12.2279 C 12 11.2524 11.3069 10.4617 10.4518 10.4617 Z" fill="#000000"/>	</g></svg>