<?xml version="1.0" standalone="no"?><!-- Generator: Adobe Fireworks CS5.1, Export SVG Extension by Aaron Beall (http://fireworks.abeall.com) . Version: 0.6.1  --><!DOCTYPE svg PUBLIC "-//W3C//DTD SVG 1.1//EN" "http://www.w3.org/Graphics/SVG/1.1/DTD/svg11.dtd"><svg id="Untitled-Page%201" viewBox="0 0 14 14" style="background-color:#ffffff00" version="1.1"	xmlns="http://www.w3.org/2000/svg" xmlns:xlink="http://www.w3.org/1999/xlink" xml:space="preserve"	x="0px" y="0px" width="14px" height="14px">	<g id="Layer%201">		<path id="Shape%20435" d="M 3.0172 1.9298 L 2.1219 1 C 0.8118 2.3228 0 4.1583 0 6.1874 C 0 8.1976 0.7971 10.0186 2.0861 11.3391 L 2.998 10.4261 C 1.9352 9.3411 1.2778 7.8427 1.2778 6.1874 C 1.2778 4.5226 1.943 3.0162 3.0172 1.9298 ZM 4.5206 3.4919 L 3.7255 2.6655 C 2.8383 3.5651 2.2893 4.8107 2.2893 6.1874 C 2.2893 7.561 2.8362 8.8048 3.7199 9.7039 L 4.5304 8.8926 C 3.8479 8.2024 3.4246 7.2456 3.4246 6.1874 C 3.4246 5.1346 3.8436 4.1815 4.5206 3.4919 ZM 6.9995 6.7306 C 7.3085 6.7306 7.5587 6.4754 7.5587 6.1605 C 7.5587 5.8457 7.3085 5.59 6.9995 5.59 C 6.691 5.59 6.4408 5.8457 6.4408 6.1605 C 6.4408 6.4754 6.691 6.7306 6.9995 6.7306 ZM 5.5902 6.1874 C 5.5902 5.7513 5.7613 5.3566 6.0384 5.0683 L 5.2172 4.2155 C 4.7236 4.7206 4.4187 5.4175 4.4187 6.1874 C 4.4187 6.969 4.7332 7.675 5.2402 8.1823 L 6.0767 7.345 C 5.7775 7.0532 5.5902 6.6432 5.5902 6.1874 ZM 11.8784 1 L 10.9833 1.9298 C 12.0573 3.0162 12.7226 4.5226 12.7226 6.1874 C 12.7226 7.8427 12.0652 9.3411 11.0024 10.4261 L 11.9143 11.3391 C 13.2034 10.0186 14 8.1976 14 6.1874 C 14 4.1583 13.1886 2.3228 11.8784 1 ZM 10.2749 2.6655 L 9.4794 3.4919 C 10.1568 4.1815 10.5757 5.1346 10.5757 6.1874 C 10.5757 7.2456 10.1525 8.2024 9.47 8.8926 L 10.2806 9.7039 C 11.1642 8.8048 11.7111 7.561 11.7111 6.1874 C 11.7111 4.8107 11.1617 3.5651 10.2749 2.6655 ZM 8.7833 4.2155 L 7.962 5.0683 C 8.239 5.3566 8.4102 5.7513 8.4102 6.1874 C 8.4102 6.6432 8.223 7.0532 7.9235 7.345 L 8.7602 8.1823 C 9.2673 7.675 9.5817 6.969 9.5817 6.1874 C 9.5817 5.4175 9.2768 4.7206 8.7833 4.2155 ZM 7.0444 7.7646 L 6.9561 7.7646 L 6.3896 7.7646 L 5.3094 13 L 6.9561 13 L 7.0444 13 L 8.6907 13 L 7.611 7.7646 L 7.0444 7.7646 Z" fill="#ffffff"/>	</g></svg>