<?xml version="1.0" standalone="no"?><!-- Generator: Adobe Fireworks CS5.1, Export SVG Extension by Aaron Beall (http://fireworks.abeall.com) . Version: 0.6.1  --><!DOCTYPE svg PUBLIC "-//W3C//DTD SVG 1.1//EN" "http://www.w3.org/Graphics/SVG/1.1/DTD/svg11.dtd"><svg id="Untitled-Page%201" viewBox="0 0 14 14" style="background-color:#ffffff00" version="1.1"	xmlns="http://www.w3.org/2000/svg" xmlns:xlink="http://www.w3.org/1999/xlink" xml:space="preserve"	x="0px" y="0px" width="14px" height="14px">	<g id="Layer%201">		<path d="M 0 5.8832 L 0 10.769 C 0 11.6594 0.2358 12.3845 0.7082 12.9446 C 0.9789 13.2681 1.3244 13.5243 1.7432 13.7149 C 2.1619 13.9047 2.5927 14 3.0335 14 C 3.9102 14 4.6499 13.709 5.2526 13.1259 C 5.8543 12.5428 6.1556 11.8253 6.1556 10.9741 C 6.1556 10.1425 5.8602 9.431 5.2713 8.8402 C 4.6823 8.2496 3.9741 7.9533 3.1476 7.9533 L 2.5603 7.9789 L 2.5603 10.3894 C 2.7681 10.2548 2.9518 10.1868 3.1119 10.1868 C 3.3383 10.1868 3.5306 10.2659 3.6873 10.4243 C 3.8439 10.5826 3.9222 10.7775 3.9222 11.0098 C 3.9222 11.2346 3.8362 11.4261 3.666 11.5844 C 3.4949 11.7428 3.2864 11.821 3.0412 11.821 C 2.4659 11.821 2.179 11.4431 2.179 10.6865 L 2.179 5.8832 L 0 5.8832 ZM 3.9222 2.6311 C 8.0374 2.6459 11.3688 5.9864 11.3688 10.1051 L 11.3629 10.4047 L 13.9957 10.4047 L 14 10.1051 C 14 4.5332 9.4906 0.0147 3.9222 0 L 3.9222 2.6311 ZM 3.9222 6.6541 C 5.9441 6.7117 7.5654 8.3689 7.5654 10.4047 L 9.6965 10.4047 C 9.6965 7.1918 7.1212 4.5806 3.9222 4.5225 L 3.9222 6.6541 Z" fill="#333333"/>	</g></svg>