<?xml version="1.0" standalone="no"?><!-- Generator: Adobe Fireworks CS5.1, Export SVG Extension by Aaron Beall (http://fireworks.abeall.com) . Version: 0.6.1  --><!DOCTYPE svg PUBLIC "-//W3C//DTD SVG 1.1//EN" "http://www.w3.org/Graphics/SVG/1.1/DTD/svg11.dtd"><svg id="Untitled-Page%201" viewBox="0 0 14 14" style="background-color:#ffffff00" version="1.1"	xmlns="http://www.w3.org/2000/svg" xmlns:xlink="http://www.w3.org/1999/xlink" xml:space="preserve"	x="0px" y="0px" width="14px" height="14px">	<g id="Layer%201">		<path d="M 11.5582 4.0163 L 11.5582 0.7348 L 9.9176 0.7348 L 9.9176 2.5708 L 7.0019 0 L 0 6.1693 L 0 7.0906 L 0.8641 7.0931 L 6.9999 1.5514 L 13.1359 7.0931 L 14 7.0906 L 14 6.1693 L 11.5582 4.0163 ZM 1.211 7.5306 L 1.1892 14 L 5.4523 13.9853 L 5.4523 8.8014 L 8.4766 8.8014 L 8.4766 13.9745 L 12.714 13.9596 L 12.714 7.4492 L 6.9626 2.2894 L 1.211 7.5306 ZM 8.4766 8.0895 L 5.4523 8.0895 L 5.4523 6.3549 L 8.4766 6.3549 L 8.4766 8.0895 Z" fill="#333333"/>	</g></svg>