<?xml version="1.0" standalone="no"?><!-- Generator: Adobe Fireworks CS5.1, Export SVG Extension by Aaron Beall (http://fireworks.abeall.com) . Version: 0.6.1  --><!DOCTYPE svg PUBLIC "-//W3C//DTD SVG 1.1//EN" "http://www.w3.org/Graphics/SVG/1.1/DTD/svg11.dtd"><svg id="Untitled-Page%201" viewBox="0 0 20 16" style="background-color:#ffffff00" version="1.1"	xmlns="http://www.w3.org/2000/svg" xmlns:xlink="http://www.w3.org/1999/xlink" xml:space="preserve"	x="0px" y="0px" width="20px" height="16px">	<g id="Layer%201">		<path d="M 5.2 14.5493 L 14.8 14.5493 L 14.7875 13.7149 C 14.7875 13.7149 12.375 14.3866 12.375 13.291 C 12.375 12.4864 12.375 13.1592 12.375 12.8672 L 16.7401 12.8672 C 17.4359 12.8672 18 12.2695 18 11.5326 L 18 2.3346 C 18 1.5977 17.4359 1 16.7401 1 L 3.2596 1 C 2.5642 1 2 1.5832 2 2.3201 L 2 11.5326 C 2 12.2695 2.5642 12.8672 3.2596 12.8672 L 7.6108 12.8672 C 7.6108 13.1592 7.6 12.4997 7.6 13.3043 C 7.6 14.3999 5.2 13.7149 5.2 13.7149 L 5.2 14.5493 ZM 16.4 11.1719 L 3.6 11.1719 L 3.6 2.6953 L 16.4 2.6953 L 16.4 11.1719 ZM 5.2 8.2269 L 5.2 6.9336 L 4.4 6.9336 L 4.4 10.3242 L 7.6 10.3242 L 7.6 9.4766 L 5.9906 9.4766 L 8.9806 5.526 L 5.2 8.2269 ZM 12.4 3.543 L 12.4 4.3906 L 14 4.3906 L 11.4918 8.04 L 14.8 4.7448 L 14.8 6.9336 L 15.6 6.9336 L 15.6 3.543 L 12.4 3.543 ZM 9.8999 15 L 9.8999 15 Z" fill="#666666"/>	</g></svg>