<?xml version="1.0" standalone="no"?><!-- Generator: Adobe Fireworks CS5.1, Export SVG Extension by Aaron Beall (http://fireworks.abeall.com) . Version: 0.6.1  --><!DOCTYPE svg PUBLIC "-//W3C//DTD SVG 1.1//EN" "http://www.w3.org/Graphics/SVG/1.1/DTD/svg11.dtd"><svg id="Untitled-Page%201" viewBox="0 0 14 14" style="background-color:#ffffff00" version="1.1"	xmlns="http://www.w3.org/2000/svg" xmlns:xlink="http://www.w3.org/1999/xlink" xml:space="preserve"	x="0px" y="0px" width="14px" height="14px">	<g id="Layer%201">		<path id="Shape%20480" d="M 6.0917 7.3847 L 7.3852 6.0915 C 8.0274 5.4493 8.0274 4.408 7.3852 3.7659 L 4.1011 0.4815 C 3.459 -0.1605 2.4176 -0.1605 1.7755 0.4815 L 0.4819 1.7754 C -0.1606 2.4174 -0.1606 3.4588 0.4819 4.101 L 3.7659 7.3847 C 4.408 8.027 5.4491 8.027 6.0917 7.3847 ZM 1.2911 3.6957 C 0.8642 3.2693 0.8642 2.5774 1.2911 2.1509 L 2.1508 1.2909 C 2.5774 0.8644 3.2694 0.8644 3.6959 1.2909 L 6.5757 4.1711 C 7.0027 4.5976 7.0027 5.2898 6.5757 5.7164 L 5.7161 6.5759 C 5.2897 7.0028 4.5978 7.0026 4.171 6.5759 L 1.2911 3.6957 ZM 7.9085 6.6152 L 6.6151 7.9085 C 5.9728 8.5511 5.9728 9.592 6.6151 10.2345 L 9.8991 13.5185 C 10.5414 14.1605 11.5826 14.1605 12.2246 13.5185 L 13.5183 12.2246 C 14.1606 11.5824 14.1606 10.5412 13.5183 9.8989 L 10.2345 6.6152 C 9.5922 5.973 8.551 5.973 7.9085 6.6152 ZM 12.7094 10.3042 C 13.1359 10.7307 13.1361 11.4231 12.7094 11.8495 L 11.8498 12.7091 C 11.4229 13.136 10.731 13.1356 10.3042 12.7091 L 7.4245 9.8294 C 6.9977 9.4023 6.9974 8.7106 7.4245 8.2839 L 8.284 7.4245 C 8.7108 6.9973 9.4025 6.9973 9.8294 7.4245 L 12.7094 10.3042 ZM 8.4802 5.5829 L 9.7277 5.5829 L 8.4802 4.3356 L 8.4802 5.5829 ZM 4.3353 8.4799 L 5.5829 9.7273 L 5.5827 8.4799 L 4.3353 8.4799 Z" fill="#000000"/>	</g></svg>