<?xml version="1.0" standalone="no"?><!-- Generator: Adobe Fireworks CS5.1, Export SVG Extension by Aaron Beall (http://fireworks.abeall.com) . Version: 0.6.1  --><!DOCTYPE svg PUBLIC "-//W3C//DTD SVG 1.1//EN" "http://www.w3.org/Graphics/SVG/1.1/DTD/svg11.dtd"><svg id="Untitled-Page%201" viewBox="0 0 26 26" style="background-color:#ffffff00" version="1.1"	xmlns="http://www.w3.org/2000/svg" xmlns:xlink="http://www.w3.org/1999/xlink" xml:space="preserve"	x="0px" y="0px" width="26px" height="26px">	<g id="Layer%201">		<path d="M 15.7299 18.2026 C 16.09 18.614 16.09 19.2803 15.7299 19.6917 C 15.3696 20.1024 14.786 20.1031 14.4254 19.6917 L 9.2701 13.7449 C 8.91 13.3336 8.91 12.6666 9.2701 12.2553 L 14.4254 6.3085 C 14.786 5.8972 15.3691 5.8972 15.7299 6.3085 C 16.09 6.7198 16.09 7.3862 15.7299 7.7976 L 11.5022 13.0001 L 15.7299 18.2026 ZM 0 13 C 0 20.1798 5.8202 26 13 26 C 20.1798 26 26 20.1798 26 13 C 26 5.8202 20.1798 0 13 0 C 5.8202 0 0 5.8202 0 13 Z" fill="#f2630c"/>	</g></svg>