<?xml version="1.0" standalone="no"?><!-- Generator: Adobe Fireworks CS5.1, Export SVG Extension by Aaron Beall (http://fireworks.abeall.com) . Version: 0.6.1  --><!DOCTYPE svg PUBLIC "-//W3C//DTD SVG 1.1//EN" "http://www.w3.org/Graphics/SVG/1.1/DTD/svg11.dtd"><svg id="Untitled-Page%201" viewBox="0 0 16 16" style="background-color:#ffffff00" version="1.1"	xmlns="http://www.w3.org/2000/svg" xmlns:xlink="http://www.w3.org/1999/xlink" xml:space="preserve"	x="0px" y="0px" width="16px" height="16px">	<g id="Layer%201">		<path d="M 1.3333 5.3333 L 14.6667 5.3333 L 14.6667 14.6667 L 1.3333 14.6667 L 1.3333 5.3333 ZM 0 1.3333 L 0 16 L 16 16 L 16 1.3333 L 14.6667 1.3333 L 14.6667 4 L 10.6667 4 L 10.6667 1.3333 L 5.3333 1.3333 L 5.3333 4 L 1.3333 4 L 1.3333 1.3333 L 0 1.3333 ZM 12 8 L 12 9.3125 L 13.3125 9.2917 L 13.3333 6.6667 L 9.3333 6.6667 L 9.3333 8 L 12 8 ZM 11.9583 10.6875 L 12 9.3333 L 10.6667 9.3333 L 10.6667 10.6667 L 10.6667 13.3333 L 12 13.3333 L 11.9583 10.6875 ZM 2.6875 7.9583 L 6.6667 8 L 6.6667 6.6667 L 2.6667 6.6667 L 2.6875 7.9583 ZM 6.6667 8 L 6.6875 9.2917 L 8 9.3333 L 8 8 L 6.6667 8 ZM 4 9.3333 L 4.0208 10.625 L 6.6458 10.6458 L 6.6667 9.3333 L 4 9.3333 ZM 3.9583 12.0625 L 4 10.6667 L 2.6667 10.6667 L 2.6667 13.3333 L 8 13.3333 L 8 12 L 3.9583 12.0625 ZM 12 0 L 12 2.6667 L 13.3333 2.6667 L 13.3333 0 L 12 0 ZM 2.6667 0 L 2.6667 2.6667 L 4 2.6667 L 4 0 L 2.6667 0 Z" fill="#666666"/>	</g></svg>