<?xml version="1.0" standalone="no"?><!-- Generator: Adobe Fireworks CS5.1, Export SVG Extension by Aaron Beall (http://fireworks.abeall.com) . Version: 0.6.1  --><!DOCTYPE svg PUBLIC "-//W3C//DTD SVG 1.1//EN" "http://www.w3.org/Graphics/SVG/1.1/DTD/svg11.dtd"><svg id="Untitled-Page%201" viewBox="0 0 17 17" style="background-color:#ffffff00" version="1.1"	xmlns="http://www.w3.org/2000/svg" xmlns:xlink="http://www.w3.org/1999/xlink" xml:space="preserve"	x="0px" y="0px" width="17px" height="17px">	<g id="Layer%201">		<path d="M 16 3.1875 C 16 3.3741 15.9013 3.547 15.74 3.6431 L 13.0614 5.2369 C 12.9781 5.2863 12.8828 5.3125 12.7857 5.3125 L 2.6071 5.3125 C 2.3113 5.3125 2.0714 5.0746 2.0714 4.7813 L 2.0714 1.5938 C 2.0714 1.3004 2.3113 1.0625 2.6071 1.0625 L 7.4286 1.0625 L 7.4286 0.5313 C 7.4286 0.2379 7.6684 0 7.9643 0 L 9.0357 0 C 9.3316 0 9.5714 0.2379 9.5714 0.5313 L 9.5714 1.0625 L 12.7857 1.0625 C 12.8828 1.0625 12.9781 1.0887 13.0614 1.1382 L 15.74 2.7319 C 15.9013 2.828 16 3.0009 16 3.1875 ZM 7.4286 11.6875 L 7.4286 16.4688 C 7.4286 16.7621 7.6684 17 7.9643 17 L 9.0357 17 C 9.3316 17 9.5714 16.7621 9.5714 16.4688 L 9.5714 11.6875 L 7.4286 11.6875 ZM 14.3929 6.375 L 4.2143 6.375 C 4.1172 6.375 4.0219 6.4012 3.9386 6.4507 L 1.26 8.0444 C 1.0987 8.1405 1 8.3134 1 8.5 C 1 8.6866 1.0987 8.8595 1.26 8.9556 L 3.9386 10.5494 C 4.0219 10.5988 4.1172 10.625 4.2143 10.625 L 14.3929 10.625 C 14.6887 10.625 14.9286 10.3871 14.9286 10.0938 L 14.9286 6.9063 C 14.9286 6.6129 14.6887 6.375 14.3929 6.375 Z" fill="#000000"/>	</g></svg>