<?xml version="1.0" standalone="no"?><!-- Generator: Adobe Fireworks CS5.1, Export SVG Extension by Aaron Beall (http://fireworks.abeall.com) . Version: 0.6.1  --><!DOCTYPE svg PUBLIC "-//W3C//DTD SVG 1.1//EN" "http://www.w3.org/Graphics/SVG/1.1/DTD/svg11.dtd"><svg id="Untitled-Page%201" viewBox="0 0 16 16" style="background-color:#ffffff00" version="1.1"	xmlns="http://www.w3.org/2000/svg" xmlns:xlink="http://www.w3.org/1999/xlink" xml:space="preserve"	x="0px" y="0px" width="16px" height="16px">	<g id="Layer%201">		<g id="usd">			<path d="M 14 10.7413 C 14 7.6827 11.025 7.0613 10.0598 6.8149 C 9.7475 6.7335 9.4659 6.6602 9.1995 6.5901 L 9.1995 3.3795 C 9.9784 3.6016 10.4741 4.1403 10.5392 5.2308 L 13.3664 5.2308 C 13.3664 2.518 11.5306 1.2581 9.1995 0.9976 L 9.1995 0 L 7.5578 0 L 7.5578 0.9835 C 5.3799 1.2103 3.2761 2.5273 3.2761 5.0243 C 3.2761 7.5535 5.2657 8.3257 7.2327 8.8549 C 7.341 8.8843 7.4494 8.9126 7.5578 8.9405 L 7.5578 12.6241 C 6.5297 12.3372 5.8275 11.5643 5.8275 10.1538 L 3.0003 10.1538 C 2.9708 13.1779 5.0243 14.7118 7.5578 15.0054 L 7.5578 16 L 9.1995 16 L 9.1995 15.0337 C 12.3387 14.802 14 13.0448 14 10.7413 ZM 6.0998 4.778 C 6.0998 3.8654 6.7997 3.4309 7.5578 3.2966 L 7.5578 6.1313 C 6.3864 5.7587 6.0998 5.4688 6.0998 4.778 ZM 9.1995 12.7212 L 9.1995 9.3687 C 10.3276 9.7028 11.1728 10.1364 11.1728 11.0826 C 11.1728 12.2067 10.1358 12.6106 9.1995 12.7212 Z" fill="#22a1ce"/>		</g>	</g></svg>