<?xml version="1.0" standalone="no"?><!-- Generator: Adobe Fireworks CS5.1, Export SVG Extension by Aaron Beall (http://fireworks.abeall.com) . Version: 0.6.1  --><!DOCTYPE svg PUBLIC "-//W3C//DTD SVG 1.1//EN" "http://www.w3.org/Graphics/SVG/1.1/DTD/svg11.dtd"><svg id="Untitled-Page%201" viewBox="0 0 15 15" style="background-color:#ffffff00" version="1.1"	xmlns="http://www.w3.org/2000/svg" xmlns:xlink="http://www.w3.org/1999/xlink" xml:space="preserve"	x="0px" y="0px" width="15px" height="15px">	<g id="Layer%201">		<path d="M 7.5 2 C 4.6858 2 2.0892 4.0469 0 7.5 C 2.0892 10.9529 4.6858 13 7.5 13 C 10.3141 13 12.9109 10.9529 15 7.5 C 12.9109 4.0469 10.3141 2 7.5 2 ZM 7.4993 11.1667 C 5.4282 11.1667 3.7493 9.525 3.7493 7.5 C 3.7493 5.475 5.4282 3.8333 7.4993 3.8333 C 7.6521 3.8333 7.8024 3.8433 7.9503 3.8606 C 7.668 4.2392 7.4993 4.7039 7.4993 5.2083 C 7.4993 6.474 8.5485 7.5 9.8431 7.5 C 10.359 7.5 10.8341 7.3351 11.2214 7.059 C 11.2391 7.2037 11.2493 7.3506 11.2493 7.5 C 11.2493 9.525 9.5705 11.1667 7.4993 11.1667 Z" fill="#000000"/>	</g></svg>