<?xml version="1.0" standalone="no"?><!-- Generator: Adobe Fireworks CS5.1, Export SVG Extension by Aaron Beall (http://fireworks.abeall.com) . Version: 0.6.1  --><!DOCTYPE svg PUBLIC "-//W3C//DTD SVG 1.1//EN" "http://www.w3.org/Graphics/SVG/1.1/DTD/svg11.dtd"><svg id="Untitled-Page%201" viewBox="0 0 16 16" style="background-color:#ffffff00" version="1.1"	xmlns="http://www.w3.org/2000/svg" xmlns:xlink="http://www.w3.org/1999/xlink" xml:space="preserve"	x="0px" y="0px" width="16px" height="16px">	<g id="Layer%201">		<path d="M 7.3134 10.9465 L 8.6813 10.9465 C 8.8432 11.1006 9.2648 11.6406 9.2648 12.0271 C 9.2648 12.7771 8.3326 13.1942 7.9897 13.1942 C 7.304 13.1942 6.7579 12.4021 6.7579 12.0271 C 6.7579 11.6278 7.2131 11.1814 7.3134 10.9465 ZM 11 6.4375 C 11 8.125 9.4348 8.3233 9.0919 9.2608 C 8.8557 9.5191 9.0358 9.6085 8.9407 10.0388 L 7.15 10.0204 C 7.0497 9.8253 6.9524 10.0215 6.9524 9.6714 C 6.9524 7.9839 7.7853 8.0378 9.1567 6.5378 C 8.6425 5.9753 8.2571 5.875 8.0857 5.875 C 7.4 5.875 6.9563 7.0189 6.442 7.0189 C 5.9277 7.0189 5.5849 6.8314 5.0706 6.8314 C 4.8992 6.6439 4.676 6.8422 4.676 6.2797 C 4.676 4.7797 6.834 4.0108 7.8625 4.0108 C 8.8911 4.0108 11 5.125 11 6.4375 ZM 0 8 C 0 12.4183 3.5817 16 8 16 C 12.4183 16 16 12.4183 16 8 C 16 3.5817 12.4183 0 8 0 C 3.5817 0 0 3.5817 0 8 Z" fill="#333333"/>	</g></svg>